<svg width="44" height="41" viewBox="0 0 44 41" fill="none" xmlns="http://www.w3.org/2000/svg">
<g>
<circle cx="18" cy="13.3333" r="9.33332" fill="#FBCA1C"/>
<circle cx="18" cy="13.3333" r="9.33332" fill="url(#paint0_radial_1_106)" fill-opacity="0.2"/>
</g>
<g >
<path d="M36.2093 19.1111C36.2178 18.9641 36.2222 18.8159 36.2222 18.6667C36.2222 14.4939 32.8394 11.1111 28.6666 11.1111C26.6587 11.1111 24.8337 11.8944 23.4805 13.1721C22.796 12.9874 22.0762 12.8889 21.3333 12.8889C18.6465 12.8889 16.2606 14.1777 14.7602 16.1707C14.3029 16.0592 13.825 16 13.3333 16C10.0196 16 7.33331 18.6863 7.33331 22C7.33331 22.0155 7.33337 22.0309 7.33348 22.0463C7.33337 22.0572 7.33331 22.068 7.33331 22.0789C7.33331 26.0854 10.5812 29.3333 14.5878 29.3333H26C31.6455 29.3333 36.2222 24.7567 36.2222 19.1111H36.2093Z" fill="white"/>
<path d="M36.2093 19.1111C36.2178 18.9641 36.2222 18.8159 36.2222 18.6667C36.2222 14.4939 32.8394 11.1111 28.6666 11.1111C26.6587 11.1111 24.8337 11.8944 23.4805 13.1721C22.796 12.9874 22.0762 12.8889 21.3333 12.8889C18.6465 12.8889 16.2606 14.1777 14.7602 16.1707C14.3029 16.0592 13.825 16 13.3333 16C10.0196 16 7.33331 18.6863 7.33331 22C7.33331 22.0155 7.33337 22.0309 7.33348 22.0463C7.33337 22.0572 7.33331 22.068 7.33331 22.0789C7.33331 26.0854 10.5812 29.3333 14.5878 29.3333H26C31.6455 29.3333 36.2222 24.7567 36.2222 19.1111H36.2093Z" fill="url(#paint1_radial_1_106)" fill-opacity="0.2"/>
</g>
<defs>

<radialGradient id="paint0_radial_1_106" cx="0" cy="0" r="1" gradientUnits="userSpaceOnUse" gradientTransform="translate(15.7778 9.77777) rotate(50.7106) scale(12.6335 8.82567)">
<stop stop-color="#FBCA1C"/>
<stop offset="1" stop-color="#E4750E"/>
</radialGradient>
<radialGradient id="paint1_radial_1_106" cx="0" cy="0" r="1" gradientUnits="userSpaceOnUse" gradientTransform="translate(27.5555 12.8889) rotate(121.827) scale(22.7547 36.0745)">
<stop stop-opacity="0"/>
<stop offset="1" stop-color="#4D5E6F"/>
</radialGradient>
</defs>
</svg>
