<svg id="svg" version="1.1" xmlns="http://www.w3.org/2000/svg" xmlns:xlink="http://www.w3.org/1999/xlink" width="400" height="400" viewBox="0, 0, 400,400"><g id="svgg"><path id="path0" d="M237.089 163.044 C 236.922 163.212,235.753 163.491,234.492 163.664 C 233.232 163.837,231.390 164.177,230.400 164.418 C 229.410 164.660,228.013 164.955,227.296 165.073 C 226.579 165.192,225.894 165.449,225.773 165.644 C 225.652 165.840,225.124 166.000,224.600 166.000 C 224.076 166.000,223.536 166.180,223.400 166.400 C 223.264 166.620,222.803 166.800,222.376 166.800 C 221.949 166.800,221.600 166.980,221.600 167.200 C 221.600 167.420,221.150 167.600,220.600 167.600 C 220.050 167.600,219.600 167.751,219.600 167.936 C 219.600 168.121,218.880 168.510,218.000 168.800 C 217.120 169.090,216.400 169.446,216.400 169.589 C 216.400 169.733,215.770 170.098,215.000 170.400 C 214.230 170.702,213.600 171.052,213.600 171.177 C 213.600 171.302,213.094 171.629,212.475 171.903 C 211.856 172.176,210.964 172.760,210.492 173.200 C 210.020 173.640,209.446 174.000,209.217 174.000 C 208.988 174.000,208.800 174.180,208.800 174.400 C 208.800 174.620,208.596 174.800,208.347 174.800 C 208.098 174.800,207.603 175.120,207.247 175.511 C 206.891 175.903,205.790 176.839,204.800 177.593 C 202.099 179.650,196.517 185.590,196.039 186.917 C 195.951 187.163,195.575 187.690,195.203 188.089 C 194.832 188.487,194.274 189.305,193.964 189.907 C 193.654 190.508,193.085 191.349,192.700 191.775 C 192.315 192.202,192.000 192.718,192.000 192.921 C 192.000 194.637,187.830 196.711,185.664 196.073 C 181.187 194.752,164.979 194.739,164.166 196.056 C 164.049 196.245,163.243 196.400,162.376 196.400 C 161.509 196.400,160.800 196.580,160.800 196.800 C 160.800 197.020,160.361 197.200,159.824 197.200 C 159.287 197.200,158.736 197.380,158.600 197.600 C 158.464 197.820,157.924 198.000,157.400 198.000 C 156.876 198.000,156.336 198.180,156.200 198.400 C 156.064 198.620,155.607 198.800,155.184 198.800 C 154.696 198.800,154.323 199.168,154.162 199.809 C 153.982 200.524,153.078 201.298,151.054 202.466 C 143.473 206.844,134.213 215.786,132.483 220.400 C 132.360 220.730,132.155 221.090,132.029 221.200 C 131.558 221.612,130.800 223.211,130.800 223.795 C 130.800 224.128,130.620 224.400,130.400 224.400 C 130.180 224.400,130.000 224.760,130.000 225.200 C 130.000 225.640,129.820 226.000,129.600 226.000 C 129.380 226.000,129.200 226.362,129.200 226.805 C 129.200 227.248,129.020 227.968,128.800 228.405 C 128.580 228.842,128.220 229.558,128.000 229.995 C 127.780 230.432,127.600 231.231,127.600 231.771 C 127.600 232.311,127.420 232.864,127.200 233.000 C 126.980 233.136,126.800 233.856,126.800 234.600 C 126.800 235.344,126.620 236.064,126.400 236.200 C 126.180 236.336,126.000 237.159,126.000 238.029 C 126.000 240.262,124.078 243.200,122.618 243.200 C 122.278 243.200,122.000 243.380,122.000 243.600 C 122.000 243.820,121.471 244.000,120.824 244.000 C 120.177 244.000,119.536 244.180,119.400 244.400 C 119.264 244.620,118.454 244.800,117.600 244.800 C 116.746 244.800,115.936 244.980,115.800 245.200 C 115.664 245.420,115.034 245.600,114.400 245.600 C 113.766 245.600,113.136 245.780,113.000 246.000 C 112.864 246.220,112.324 246.400,111.800 246.400 C 111.276 246.400,110.736 246.580,110.600 246.800 C 110.464 247.020,110.003 247.200,109.576 247.200 C 109.149 247.200,108.800 247.380,108.800 247.600 C 108.800 247.820,108.455 248.000,108.033 248.000 C 107.612 248.000,107.207 248.135,107.133 248.300 C 107.060 248.465,106.190 249.037,105.200 249.570 C 104.210 250.104,103.310 250.645,103.200 250.772 C 103.090 250.900,102.280 251.528,101.400 252.167 C 99.457 253.578,94.398 258.599,93.453 260.053 C 93.077 260.632,92.275 261.205,91.670 261.326 C 90.875 261.485,90.416 261.940,90.011 262.973 C 89.703 263.758,89.304 264.400,89.125 264.400 C 88.946 264.400,88.800 264.760,88.800 265.200 C 88.800 265.640,88.620 266.000,88.400 266.000 C 88.180 266.000,88.000 266.349,88.000 266.776 C 88.000 267.203,87.820 267.664,87.600 267.800 C 87.380 267.936,87.200 268.476,87.200 269.000 C 87.200 269.524,87.020 270.064,86.800 270.200 C 86.580 270.336,86.400 270.876,86.400 271.400 C 86.400 271.924,86.220 272.464,86.000 272.600 C 85.780 272.736,85.600 273.636,85.600 274.600 C 85.600 275.564,85.420 276.464,85.200 276.600 C 84.665 276.931,84.665 289.069,85.200 289.400 C 85.420 289.536,85.600 290.447,85.600 291.424 C 85.600 292.401,85.780 293.200,86.000 293.200 C 86.220 293.200,86.400 293.830,86.400 294.600 C 86.400 295.370,86.580 296.000,86.800 296.000 C 87.020 296.000,87.200 296.450,87.200 297.000 C 87.200 297.550,87.380 298.000,87.600 298.000 C 87.820 298.000,88.000 298.324,88.000 298.720 C 88.000 299.614,88.894 301.593,89.300 301.597 C 89.465 301.599,89.600 301.960,89.600 302.400 C 89.600 302.840,89.759 303.200,89.954 303.200 C 90.149 303.200,90.596 303.805,90.947 304.545 C 91.298 305.285,91.859 306.117,92.193 306.394 C 92.527 306.671,92.800 307.071,92.800 307.283 C 92.800 307.620,95.327 310.460,97.850 312.958 C 99.137 314.233,100.373 315.200,100.716 315.200 C 100.885 315.200,101.283 315.560,101.600 316.000 C 101.917 316.440,102.497 316.800,102.888 316.800 C 103.280 316.800,103.600 316.961,103.600 317.158 C 103.600 317.539,110.016 320.800,110.766 320.800 C 111.011 320.800,111.523 320.962,111.905 321.161 C 112.587 321.515,114.194 321.959,117.426 322.684 C 121.331 323.561,132.443 323.137,135.400 321.999 C 135.840 321.830,137.010 321.453,138.000 321.163 C 139.975 320.582,146.121 317.590,146.333 317.104 C 146.407 316.937,146.801 316.800,147.210 316.800 C 147.618 316.800,148.064 316.620,148.200 316.400 C 148.336 316.180,148.887 316.000,149.424 316.000 C 149.961 316.000,150.400 315.820,150.400 315.600 C 150.400 315.380,150.904 315.200,151.520 315.200 C 152.136 315.200,152.830 315.010,153.061 314.779 C 153.611 314.229,164.002 314.242,164.554 314.794 C 164.777 315.017,165.374 315.200,165.880 315.200 C 166.386 315.200,166.800 315.380,166.800 315.600 C 166.800 315.820,167.160 316.000,167.600 316.000 C 168.040 316.000,168.400 316.158,168.400 316.351 C 168.400 316.545,168.940 316.927,169.600 317.200 C 170.260 317.473,170.800 317.843,170.800 318.022 C 170.800 318.200,171.159 318.460,171.598 318.599 C 172.036 318.738,172.621 319.077,172.898 319.352 C 173.993 320.440,181.445 323.980,184.433 324.831 C 185.405 325.108,186.371 325.485,186.580 325.667 C 186.789 325.850,187.453 326.000,188.056 326.000 C 188.659 326.000,189.264 326.180,189.400 326.400 C 189.536 326.620,190.177 326.800,190.824 326.800 C 191.471 326.800,192.000 326.980,192.000 327.200 C 192.000 327.420,192.889 327.600,193.976 327.600 C 195.063 327.600,196.064 327.780,196.200 328.000 C 196.336 328.220,197.776 328.400,199.400 328.400 C 201.024 328.400,202.464 328.580,202.600 328.800 C 202.930 329.333,213.870 329.333,214.200 328.800 C 214.336 328.580,215.787 328.400,217.424 328.400 C 219.141 328.400,220.400 328.231,220.400 328.000 C 220.400 327.780,221.199 327.600,222.176 327.600 C 223.153 327.600,224.064 327.420,224.200 327.200 C 224.336 326.980,225.056 326.800,225.800 326.800 C 226.544 326.800,227.264 326.620,227.400 326.400 C 227.536 326.180,228.177 326.000,228.824 326.000 C 229.471 326.000,230.000 325.820,230.000 325.600 C 230.000 325.380,230.326 325.200,230.724 325.200 C 232.203 325.200,241.600 321.009,241.600 320.349 C 241.600 320.157,241.788 320.000,242.018 320.000 C 242.542 320.000,248.390 316.092,249.200 315.200 C 249.530 314.837,250.385 314.284,251.100 313.972 C 251.815 313.660,252.400 313.269,252.400 313.102 C 252.400 312.936,252.940 312.800,253.600 312.800 C 254.260 312.800,254.800 312.620,254.800 312.400 C 254.800 312.161,256.333 312.000,258.600 312.000 C 260.867 312.000,262.400 312.161,262.400 312.400 C 262.400 312.620,262.762 312.800,263.205 312.800 C 263.648 312.800,264.323 312.968,264.705 313.174 C 265.087 313.379,265.985 313.783,266.700 314.071 C 267.415 314.360,268.000 314.731,268.000 314.898 C 268.000 315.064,268.270 315.200,268.600 315.200 C 268.930 315.200,269.200 315.358,269.200 315.551 C 269.200 315.745,269.740 316.127,270.400 316.400 C 271.060 316.673,271.600 317.055,271.600 317.249 C 271.600 317.442,271.960 317.600,272.400 317.600 C 272.840 317.600,273.200 317.751,273.200 317.936 C 273.200 318.316,280.122 321.600,280.922 321.600 C 281.207 321.600,281.611 321.771,281.820 321.979 C 282.221 322.380,286.039 323.466,288.400 323.851 C 289.170 323.976,289.915 324.150,290.056 324.236 C 290.319 324.397,297.560 324.967,299.000 324.940 C 303.322 324.859,307.080 324.463,309.800 323.803 C 312.925 323.044,316.387 322.062,317.400 321.648 C 320.156 320.520,324.400 318.279,324.400 317.952 C 324.400 317.759,324.760 317.600,325.200 317.600 C 325.640 317.600,326.000 317.432,326.000 317.227 C 326.000 317.022,326.366 316.738,326.813 316.596 C 327.260 316.454,328.062 315.902,328.595 315.369 C 329.128 314.836,329.750 314.400,329.977 314.400 C 330.502 314.400,339.600 305.426,339.600 304.909 C 339.600 304.697,340.050 304.001,340.600 303.362 C 341.149 302.723,341.599 301.975,341.600 301.700 C 341.600 301.425,341.780 301.200,342.000 301.200 C 342.220 301.200,342.400 300.922,342.400 300.583 C 342.400 300.244,342.760 299.580,343.200 299.108 C 343.640 298.636,344.000 298.013,344.000 297.725 C 344.000 297.436,344.180 297.200,344.400 297.200 C 344.620 297.200,344.800 296.964,344.800 296.675 C 344.800 296.386,345.160 295.405,345.600 294.494 C 346.040 293.584,346.400 292.571,346.400 292.243 C 346.400 291.915,346.580 291.536,346.800 291.400 C 347.020 291.264,347.200 290.713,347.200 290.176 C 347.200 289.639,347.380 289.200,347.600 289.200 C 347.820 289.200,348.000 288.581,348.000 287.824 C 348.000 287.067,348.180 286.336,348.400 286.200 C 348.620 286.064,348.800 285.153,348.800 284.176 C 348.800 283.199,348.980 282.400,349.200 282.400 C 349.454 282.400,349.600 279.408,349.600 274.224 C 349.600 269.204,349.446 265.952,349.200 265.800 C 348.980 265.664,348.800 264.764,348.800 263.800 C 348.800 262.836,348.620 261.936,348.400 261.800 C 348.180 261.664,348.000 261.034,348.000 260.400 C 348.000 259.766,347.820 259.136,347.600 259.000 C 347.380 258.864,347.200 258.324,347.200 257.800 C 347.200 257.276,347.020 256.736,346.800 256.600 C 346.580 256.464,346.400 255.913,346.400 255.376 C 346.400 254.839,346.220 254.400,346.000 254.400 C 345.780 254.400,345.600 254.166,345.600 253.880 C 345.600 253.144,344.659 251.207,344.300 251.203 C 344.135 251.201,344.000 250.840,344.000 250.400 C 344.000 249.960,343.820 249.600,343.600 249.600 C 343.380 249.600,343.200 249.240,343.200 248.800 C 343.200 248.360,343.020 248.000,342.800 248.000 C 342.580 248.000,342.400 247.730,342.400 247.400 C 342.400 247.070,342.264 246.800,342.098 246.800 C 341.931 246.800,341.571 246.305,341.297 245.700 C 341.023 245.095,340.304 244.033,339.699 243.341 C 339.095 242.648,338.330 241.675,338.000 241.177 C 337.035 239.722,331.135 234.000,330.600 234.000 C 330.405 234.000,329.127 232.996,328.184 232.100 C 327.894 231.825,327.464 231.600,327.229 231.600 C 326.993 231.600,326.799 231.465,326.797 231.300 C 326.795 231.135,326.390 230.793,325.897 230.540 C 319.507 227.261,317.662 226.414,316.900 226.408 C 316.405 226.403,316.000 226.220,316.000 226.000 C 316.000 225.780,315.471 225.600,314.824 225.600 C 314.177 225.600,313.536 225.420,313.400 225.200 C 313.264 224.980,312.533 224.800,311.776 224.800 C 311.019 224.800,310.400 224.620,310.400 224.400 C 310.400 224.180,309.860 224.000,309.200 224.000 C 308.540 224.000,308.000 223.820,308.000 223.600 C 308.000 223.380,307.643 223.200,307.208 223.200 C 306.674 223.200,306.330 222.841,306.152 222.100 C 306.008 221.495,305.758 220.820,305.597 220.600 C 305.436 220.380,305.188 219.030,305.045 217.600 C 304.725 214.384,304.197 211.163,303.603 208.800 C 303.354 207.810,303.051 206.503,302.929 205.895 C 302.807 205.287,302.549 204.692,302.354 204.571 C 302.159 204.451,302.000 203.924,302.000 203.400 C 302.000 202.876,301.820 202.336,301.600 202.200 C 301.380 202.064,301.200 201.603,301.200 201.176 C 301.200 200.749,301.020 200.400,300.800 200.400 C 300.580 200.400,300.400 199.950,300.400 199.400 C 300.400 198.850,300.220 198.400,300.000 198.400 C 299.780 198.400,299.600 198.166,299.600 197.880 C 299.600 197.144,298.659 195.207,298.300 195.203 C 298.135 195.201,298.000 194.922,298.000 194.583 C 298.000 194.244,297.640 193.580,297.200 193.108 C 296.760 192.636,296.400 192.013,296.400 191.725 C 296.400 191.436,296.232 191.200,296.027 191.200 C 295.822 191.200,295.540 190.841,295.401 190.402 C 295.262 189.964,294.928 189.379,294.661 189.102 C 294.393 188.826,293.732 187.972,293.192 187.204 C 290.450 183.309,281.850 174.806,280.647 174.801 C 280.453 174.801,280.003 174.484,279.647 174.097 C 279.291 173.711,278.505 173.140,277.900 172.830 C 277.295 172.519,276.800 172.115,276.800 171.932 C 276.800 171.750,276.440 171.600,276.000 171.600 C 275.560 171.600,275.200 171.442,275.200 171.249 C 275.200 171.055,274.660 170.673,274.000 170.400 C 273.340 170.127,272.800 169.745,272.800 169.551 C 272.800 169.358,272.535 169.200,272.212 169.200 C 271.889 169.200,270.983 168.840,270.200 168.400 C 269.417 167.960,268.511 167.600,268.188 167.600 C 267.865 167.600,267.600 167.420,267.600 167.200 C 267.600 166.980,267.180 166.800,266.667 166.800 C 266.153 166.800,265.610 166.677,265.459 166.526 C 265.020 166.087,262.281 165.213,261.324 165.206 C 260.842 165.203,260.348 165.039,260.226 164.842 C 260.105 164.645,259.329 164.383,258.503 164.258 C 257.676 164.133,255.920 163.830,254.600 163.583 C 251.732 163.047,237.523 162.610,237.089 163.044 " stroke="none" fill="#ececec" fill-rule="evenodd"></path><path id="path1" d="M161.200 71.200 C 161.200 71.426,160.067 71.600,158.600 71.600 C 157.133 71.600,156.000 71.774,156.000 72.000 C 156.000 72.220,155.100 72.400,154.000 72.400 C 152.900 72.400,152.000 72.580,152.000 72.800 C 152.000 73.020,151.280 73.200,150.400 73.200 C 149.520 73.200,148.800 73.380,148.800 73.600 C 148.800 73.820,148.080 74.000,147.200 74.000 C 146.320 74.000,145.600 74.180,145.600 74.400 C 145.600 74.620,145.049 74.800,144.376 74.800 C 143.631 74.800,143.253 74.963,143.410 75.216 C 143.575 75.484,143.314 75.543,142.677 75.384 C 142.127 75.245,141.569 75.327,141.420 75.568 C 141.273 75.805,140.638 76.000,140.010 76.000 C 139.381 76.000,138.799 76.203,138.717 76.450 C 138.634 76.698,138.079 76.900,137.483 76.900 C 136.888 76.900,136.400 77.058,136.400 77.250 C 136.400 77.442,135.961 77.600,135.424 77.600 C 134.887 77.600,134.336 77.780,134.200 78.000 C 134.064 78.220,133.603 78.400,133.176 78.400 C 132.749 78.400,132.400 78.580,132.400 78.800 C 132.400 79.020,132.128 79.200,131.795 79.200 C 131.462 79.200,130.877 79.360,130.495 79.556 C 130.113 79.752,128.900 80.337,127.800 80.856 C 126.700 81.375,125.740 81.935,125.667 82.100 C 125.593 82.265,125.188 82.400,124.767 82.400 C 124.345 82.400,124.000 82.580,124.000 82.800 C 124.000 83.020,123.640 83.200,123.200 83.200 C 122.760 83.200,122.400 83.380,122.400 83.600 C 122.400 83.820,122.122 84.000,121.783 84.000 C 121.444 84.000,120.780 84.360,120.308 84.800 C 119.836 85.240,119.213 85.600,118.925 85.600 C 118.636 85.600,118.400 85.780,118.400 86.000 C 118.400 86.220,118.080 86.400,117.688 86.400 C 117.297 86.400,116.717 86.760,116.400 87.200 C 116.083 87.640,115.503 88.000,115.112 88.000 C 114.720 88.000,114.400 88.150,114.400 88.332 C 114.400 88.515,113.905 88.920,113.300 89.232 C 112.695 89.545,111.851 90.115,111.425 90.500 C 110.998 90.885,110.413 91.200,110.125 91.200 C 109.836 91.200,109.600 91.341,109.600 91.514 C 109.600 91.686,109.015 92.169,108.300 92.585 C 107.585 93.002,106.730 93.634,106.400 93.991 C 106.070 94.347,105.179 95.073,104.419 95.604 C 103.094 96.531,100.981 98.451,96.063 103.200 C 94.810 104.410,93.338 106.075,92.792 106.901 C 92.247 107.726,91.485 108.503,91.100 108.628 C 90.715 108.752,90.400 109.142,90.400 109.494 C 90.400 109.845,90.289 110.022,90.152 109.886 C 89.849 109.582,88.800 110.579,88.800 111.171 C 88.800 111.407,88.620 111.600,88.400 111.600 C 88.180 111.600,88.000 111.798,88.000 112.040 C 88.000 112.281,87.460 112.983,86.800 113.600 C 86.140 114.217,85.600 114.892,85.600 115.101 C 85.600 115.310,85.060 116.046,84.400 116.737 C 83.740 117.428,83.200 118.225,83.200 118.508 C 83.200 118.791,82.840 119.283,82.400 119.600 C 81.960 119.917,81.600 120.457,81.600 120.800 C 81.600 121.143,81.240 121.683,80.800 122.000 C 80.360 122.317,80.000 122.814,80.000 123.105 C 80.000 123.396,79.650 124.009,79.223 124.468 C 78.795 124.927,77.968 126.311,77.384 127.544 C 76.800 128.776,75.980 130.266,75.561 130.854 C 75.143 131.442,74.800 132.211,74.800 132.562 C 74.800 132.913,74.620 133.200,74.400 133.200 C 74.180 133.200,74.000 133.560,74.000 134.000 C 74.000 134.440,73.820 134.800,73.600 134.800 C 73.380 134.800,73.200 135.149,73.200 135.576 C 73.200 136.003,73.020 136.464,72.800 136.600 C 72.580 136.736,72.400 137.287,72.400 137.824 C 72.400 138.361,72.220 138.800,72.000 138.800 C 71.780 138.800,71.600 139.160,71.600 139.600 C 71.600 140.040,71.420 140.400,71.200 140.400 C 70.980 140.400,70.800 140.760,70.800 141.200 C 70.800 141.640,70.609 142.000,70.376 142.000 C 70.143 142.000,70.044 142.148,70.156 142.329 C 70.268 142.509,70.098 143.160,69.780 143.774 C 69.461 144.389,69.200 145.231,69.200 145.646 C 69.200 146.061,69.020 146.400,68.800 146.400 C 68.580 146.400,68.400 146.940,68.400 147.600 C 68.400 148.260,68.220 148.800,68.000 148.800 C 67.780 148.800,67.600 149.340,67.600 150.000 C 67.600 150.660,67.420 151.200,67.200 151.200 C 66.980 151.200,66.800 151.729,66.800 152.376 C 66.800 153.023,66.620 153.664,66.400 153.800 C 66.180 153.936,66.000 154.656,66.000 155.400 C 66.000 156.144,65.820 156.864,65.600 157.000 C 65.380 157.136,65.200 157.946,65.200 158.800 C 65.200 159.654,65.020 160.464,64.800 160.600 C 64.580 160.736,64.400 161.647,64.400 162.624 C 64.400 163.601,64.220 164.400,64.000 164.400 C 63.779 164.400,63.600 165.440,63.600 166.720 C 63.600 167.996,63.431 169.211,63.225 169.420 C 62.538 170.116,61.745 189.905,62.379 190.539 C 62.622 190.782,62.800 192.788,62.800 195.280 C 62.800 197.893,62.958 199.600,63.200 199.600 C 63.426 199.600,63.600 200.733,63.600 202.200 C 63.600 203.667,63.774 204.800,64.000 204.800 C 64.220 204.800,64.400 205.700,64.400 206.800 C 64.400 207.900,64.580 208.800,64.800 208.800 C 65.020 208.800,65.200 209.520,65.200 210.400 C 65.200 211.280,65.380 212.000,65.600 212.000 C 65.820 212.000,66.000 212.720,66.000 213.600 C 66.000 214.480,66.180 215.200,66.400 215.200 C 66.620 215.200,66.800 215.729,66.800 216.376 C 66.800 217.023,66.980 217.664,67.200 217.800 C 67.420 217.936,67.600 218.566,67.600 219.200 C 67.600 219.834,67.780 220.464,68.000 220.600 C 68.220 220.736,68.400 221.287,68.400 221.824 C 68.400 222.361,68.580 222.800,68.800 222.800 C 69.020 222.800,69.200 223.239,69.200 223.776 C 69.200 224.313,69.380 224.864,69.600 225.000 C 69.820 225.136,70.000 225.597,70.000 226.024 C 70.000 226.451,70.180 226.800,70.400 226.800 C 70.620 226.800,70.800 227.340,70.800 228.000 C 70.800 228.660,70.980 229.200,71.200 229.200 C 71.420 229.200,71.600 229.560,71.600 230.000 C 71.600 230.440,71.780 230.800,72.000 230.800 C 72.220 230.800,72.400 231.160,72.400 231.600 C 72.400 232.040,72.580 232.400,72.800 232.400 C 73.020 232.400,73.200 232.760,73.200 233.200 C 73.200 233.640,73.380 234.000,73.600 234.000 C 73.820 234.000,74.000 234.236,74.000 234.525 C 74.000 234.814,74.450 235.984,75.001 237.125 C 75.551 238.266,76.014 239.334,76.029 239.500 C 76.045 239.665,76.315 240.085,76.629 240.432 C 76.944 240.780,77.081 241.185,76.934 241.332 C 76.787 241.480,76.877 241.600,77.133 241.600 C 77.390 241.600,77.600 241.836,77.600 242.125 C 77.600 242.413,77.960 243.036,78.400 243.508 C 78.840 243.980,79.200 244.644,79.200 244.983 C 79.200 245.322,79.380 245.600,79.600 245.600 C 79.820 245.600,80.000 245.836,80.000 246.125 C 80.000 246.413,80.315 246.998,80.700 247.425 C 81.085 247.851,81.655 248.695,81.968 249.300 C 82.280 249.905,82.685 250.400,82.868 250.400 C 83.050 250.400,83.200 250.670,83.200 251.000 C 83.200 251.330,83.380 251.600,83.600 251.600 C 83.820 251.600,84.000 251.782,84.000 252.004 C 84.000 252.226,84.540 252.972,85.200 253.663 C 85.860 254.354,86.400 255.086,86.400 255.291 C 86.400 255.495,87.120 256.354,88.000 257.200 C 88.880 258.046,89.600 258.854,89.600 258.997 C 89.600 259.140,89.875 259.532,90.212 259.869 C 90.935 260.592,92.800 260.276,92.800 259.431 C 92.800 257.532,102.862 249.192,107.800 246.998 C 109.120 246.411,110.513 245.767,110.895 245.566 C 111.277 245.365,111.941 245.200,112.371 245.200 C 112.801 245.200,113.264 245.020,113.400 244.800 C 113.536 244.580,114.256 244.400,115.000 244.400 C 115.744 244.400,116.464 244.220,116.600 244.000 C 116.736 243.780,117.409 243.600,118.095 243.600 C 119.908 243.600,122.018 242.763,123.459 241.473 C 124.690 240.371,124.893 239.795,125.456 235.800 C 125.580 234.920,125.844 234.029,126.041 233.820 C 126.238 233.611,126.400 232.882,126.400 232.200 C 126.400 231.518,126.549 230.789,126.730 230.580 C 126.912 230.371,127.312 229.390,127.620 228.400 C 129.723 221.627,135.418 213.232,141.458 208.000 C 144.448 205.411,145.327 204.793,151.900 200.658 C 153.465 199.673,154.284 198.000,153.200 198.000 C 152.980 198.000,152.800 197.640,152.800 197.200 C 152.800 196.760,152.620 196.400,152.400 196.400 C 152.180 196.400,152.000 196.040,152.000 195.600 C 152.000 195.160,151.854 194.800,151.675 194.800 C 151.496 194.800,151.102 194.170,150.800 193.400 C 150.498 192.630,150.104 192.000,149.925 192.000 C 149.746 192.000,149.600 191.640,149.600 191.200 C 149.600 190.760,149.420 190.400,149.200 190.400 C 148.980 190.400,148.800 190.040,148.800 189.600 C 148.800 189.160,148.620 188.800,148.400 188.800 C 148.180 188.800,148.000 188.260,148.000 187.600 C 148.000 186.940,147.820 186.400,147.600 186.400 C 147.380 186.400,147.200 186.040,147.200 185.600 C 147.200 185.160,147.020 184.800,146.800 184.800 C 146.580 184.800,146.400 184.260,146.400 183.600 C 146.400 182.940,146.220 182.400,146.000 182.400 C 145.780 182.400,145.600 181.950,145.600 181.400 C 145.600 180.850,145.420 180.400,145.200 180.400 C 144.980 180.400,144.800 179.950,144.800 179.400 C 144.800 178.850,144.620 178.400,144.400 178.400 C 144.180 178.400,144.000 177.770,144.000 177.000 C 144.000 176.230,143.820 175.600,143.600 175.600 C 143.380 175.600,143.200 175.060,143.200 174.400 C 143.200 173.740,143.020 173.200,142.800 173.200 C 142.580 173.200,142.400 172.480,142.400 171.600 C 142.400 170.720,142.239 170.000,142.042 170.000 C 141.845 170.000,141.555 168.515,141.397 166.700 C 141.240 164.885,140.969 163.220,140.795 163.000 C 140.621 162.780,140.367 161.520,140.230 160.200 C 140.093 158.880,139.791 156.000,139.558 153.800 C 139.015 148.663,139.015 137.737,139.558 132.600 C 139.791 130.400,140.093 127.520,140.230 126.200 C 140.367 124.880,140.623 123.620,140.800 123.400 C 140.976 123.180,141.249 121.605,141.407 119.900 C 141.565 118.195,141.853 116.800,142.047 116.800 C 142.241 116.800,142.400 116.080,142.400 115.200 C 142.400 114.320,142.580 113.600,142.800 113.600 C 143.020 113.600,143.200 113.060,143.200 112.400 C 143.200 111.740,143.380 111.200,143.600 111.200 C 143.820 111.200,144.000 110.570,144.000 109.800 C 144.000 109.030,144.180 108.400,144.400 108.400 C 144.620 108.400,144.800 108.038,144.800 107.595 C 144.800 107.152,144.980 106.432,145.200 105.995 C 145.420 105.558,145.780 104.842,146.000 104.405 C 146.220 103.968,146.400 103.248,146.400 102.805 C 146.400 102.362,146.580 102.000,146.800 102.000 C 147.020 102.000,147.200 101.651,147.200 101.224 C 147.200 100.797,147.380 100.336,147.600 100.200 C 147.820 100.064,148.000 99.513,148.000 98.976 C 148.000 98.439,148.180 98.000,148.400 98.000 C 148.620 98.000,148.800 97.640,148.800 97.200 C 148.800 96.760,148.980 96.400,149.200 96.400 C 149.420 96.400,149.600 96.040,149.600 95.600 C 149.600 95.160,149.780 94.800,150.000 94.800 C 150.220 94.800,150.400 94.440,150.400 94.000 C 150.400 93.560,150.580 93.200,150.800 93.200 C 151.020 93.200,151.200 92.840,151.200 92.400 C 151.200 91.960,151.346 91.600,151.525 91.600 C 151.704 91.600,152.098 90.970,152.400 90.200 C 152.702 89.430,153.096 88.800,153.275 88.800 C 153.454 88.800,153.600 88.522,153.600 88.183 C 153.600 87.844,153.960 87.180,154.400 86.708 C 154.840 86.236,155.200 85.613,155.200 85.325 C 155.200 85.036,155.380 84.800,155.600 84.800 C 155.820 84.800,156.000 84.440,156.000 84.000 C 156.000 83.560,156.150 83.200,156.332 83.200 C 156.515 83.200,156.920 82.705,157.232 82.100 C 157.545 81.495,158.025 80.762,158.300 80.471 C 158.575 80.181,158.800 79.712,158.800 79.431 C 158.800 79.149,159.340 78.354,160.000 77.663 C 160.660 76.972,161.200 76.148,161.200 75.831 C 161.200 75.513,161.560 75.140,162.000 75.000 C 162.440 74.860,162.800 74.488,162.800 74.173 C 162.800 73.858,162.935 73.599,163.100 73.597 C 163.406 73.594,164.400 71.700,164.400 71.120 C 164.400 70.944,163.680 70.800,162.800 70.800 C 161.920 70.800,161.200 70.980,161.200 71.200 M198.800 105.741 C 198.800 106.038,198.260 106.846,197.600 107.537 C 196.940 108.228,196.400 108.946,196.400 109.134 C 196.400 109.322,196.040 109.802,195.600 110.200 C 195.160 110.598,194.800 111.166,194.800 111.462 C 194.800 111.758,194.659 112.000,194.486 112.000 C 194.156 112.000,192.558 114.505,192.745 114.730 C 192.804 114.802,192.481 115.183,192.026 115.577 C 191.572 115.971,191.200 116.588,191.200 116.947 C 191.200 117.530,190.318 117.600,183.000 117.600 C 176.707 117.600,174.800 117.716,174.800 118.100 C 174.800 118.643,177.313 120.800,177.945 120.800 C 178.159 120.800,178.393 120.948,178.467 121.130 C 178.540 121.311,179.860 122.300,181.400 123.328 C 182.940 124.355,184.417 125.377,184.683 125.598 C 184.949 125.819,185.367 126.000,185.612 126.000 C 187.024 126.000,187.200 127.017,187.200 135.171 C 187.200 140.823,187.332 143.200,187.647 143.200 C 188.219 143.200,190.165 140.988,191.078 139.300 C 191.465 138.585,191.921 138.000,192.091 138.000 C 192.261 138.000,192.400 137.757,192.400 137.459 C 192.400 137.162,192.940 136.354,193.600 135.663 C 194.260 134.972,194.800 134.175,194.800 133.892 C 194.800 133.609,195.160 133.117,195.600 132.800 C 196.040 132.483,196.400 131.903,196.400 131.512 C 196.400 130.853,197.006 130.800,204.600 130.800 C 211.788 130.800,212.800 130.722,212.800 130.171 C 212.800 129.400,211.849 128.400,211.117 128.400 C 210.820 128.400,210.324 128.050,210.015 127.621 C 209.707 127.193,209.307 126.934,209.127 127.045 C 208.947 127.156,208.800 127.057,208.800 126.824 C 208.800 126.591,208.530 126.400,208.200 126.400 C 207.870 126.400,207.600 126.250,207.600 126.068 C 207.600 125.885,207.105 125.481,206.500 125.170 C 205.895 124.860,205.109 124.289,204.753 123.903 C 204.397 123.516,203.908 123.200,203.667 123.200 C 203.425 123.200,202.591 122.616,201.813 121.903 L 200.400 120.606 200.400 112.903 C 200.400 105.467,200.372 105.200,199.600 105.200 C 199.160 105.200,198.800 105.443,198.800 105.741 M59.008 289.187 C 58.877 289.399,58.890 291.177,59.038 293.138 C 59.348 297.241,59.036 299.600,58.182 299.600 C 57.862 299.600,57.600 299.780,57.600 300.000 C 57.600 300.220,57.280 300.400,56.888 300.400 C 56.497 300.400,55.917 300.760,55.600 301.200 C 55.283 301.640,54.743 302.000,54.400 302.000 C 54.057 302.000,53.517 302.360,53.200 302.800 C 52.883 303.240,52.380 303.600,52.083 303.600 C 51.351 303.600,50.400 304.600,50.400 305.371 C 50.400 305.907,51.087 306.000,55.026 306.000 C 59.584 306.000,61.200 306.347,61.200 307.326 C 61.200 307.599,61.560 308.083,62.000 308.400 C 62.440 308.717,62.800 309.297,62.800 309.688 C 62.800 310.080,62.980 310.400,63.200 310.400 C 63.420 310.400,63.600 310.636,63.600 310.925 C 63.600 311.213,63.960 311.836,64.400 312.308 C 64.840 312.780,65.200 313.367,65.200 313.612 C 65.200 314.263,66.245 315.200,66.971 315.200 C 67.512 315.200,67.600 314.442,67.600 309.800 C 67.600 305.612,67.718 304.400,68.125 304.400 C 68.413 304.400,69.036 304.040,69.508 303.600 C 69.980 303.160,70.644 302.800,70.983 302.800 C 71.322 302.800,71.600 302.620,71.600 302.400 C 71.600 302.180,71.870 302.000,72.200 302.000 C 72.530 302.000,72.800 301.820,72.800 301.600 C 72.800 301.380,73.070 301.200,73.400 301.200 C 73.730 301.200,74.000 301.020,74.000 300.800 C 74.000 300.580,74.179 300.400,74.397 300.400 C 75.118 300.400,76.800 298.669,76.800 297.928 C 76.800 297.261,76.361 297.200,71.571 297.200 C 66.430 297.200,65.200 296.911,65.200 295.704 C 65.200 295.510,64.885 295.002,64.500 294.575 C 64.115 294.149,63.531 293.260,63.203 292.600 C 62.874 291.940,62.289 291.109,61.903 290.753 C 61.516 290.397,61.200 289.812,61.200 289.453 C 61.200 288.733,59.422 288.517,59.008 289.187 " stroke="none" fill="#fcc444" fill-rule="evenodd"></path><path id="path2" d="M141.369 208.565 C 139.613 210.180,137.475 212.379,136.616 213.451 C 135.758 214.523,136.754 213.669,138.828 211.554 C 140.903 209.438,143.122 207.321,143.761 206.848 C 144.400 206.376,144.841 205.908,144.741 205.808 C 144.642 205.709,143.124 206.949,141.369 208.565 M133.910 216.900 C 132.976 218.132,131.643 220.428,132.110 220.000 C 132.522 219.623,135.213 215.600,135.054 215.600 C 134.967 215.600,134.452 216.185,133.910 216.900 M129.600 224.084 C 129.600 224.204,129.328 224.954,128.995 225.751 C 128.662 226.548,128.479 227.200,128.589 227.200 C 128.906 227.200,130.033 224.300,129.805 224.072 C 129.692 223.959,129.600 223.965,129.600 224.084 M127.691 228.900 C 127.010 230.784,127.104 231.294,127.826 229.630 C 128.153 228.877,128.366 228.099,128.301 227.902 C 128.235 227.705,127.960 228.154,127.691 228.900 M125.654 236.800 C 125.619 237.350,125.496 238.250,125.383 238.800 L 125.177 239.800 125.607 238.815 C 125.843 238.274,125.965 237.374,125.878 236.815 L 125.720 235.800 125.654 236.800 M124.502 240.935 C 124.065 241.895,121.944 243.109,119.800 243.628 C 118.844 243.859,118.784 243.926,119.504 243.959 C 121.479 244.048,125.966 241.033,125.119 240.186 C 125.015 240.082,124.738 240.419,124.502 240.935 M106.700 247.826 C 105.655 248.370,104.800 248.905,104.800 249.014 C 104.800 249.193,108.760 247.323,109.167 246.952 C 109.662 246.501,108.361 246.962,106.700 247.826 M100.668 251.700 C 99.434 252.635,98.419 253.552,98.412 253.737 C 98.405 253.923,99.345 253.304,100.500 252.363 C 103.333 250.054,103.392 250.000,103.135 250.000 C 103.012 250.000,101.901 250.765,100.668 251.700 M96.868 254.927 C 95.647 256.227,95.782 256.582,97.024 255.339 C 97.588 254.776,97.978 254.245,97.892 254.159 C 97.807 254.073,97.346 254.419,96.868 254.927 M93.871 258.446 C 93.030 259.520,92.423 260.400,92.523 260.400 C 92.805 260.400,95.708 256.773,95.545 256.624 C 95.465 256.551,94.712 257.371,93.871 258.446 M58.928 296.000 C 58.928 297.430,59.001 298.015,59.089 297.300 C 59.178 296.585,59.178 295.415,59.089 294.700 C 59.001 293.985,58.928 294.570,58.928 296.000 " stroke="none" fill="#f4d9a0" fill-rule="evenodd"></path><path id="path3" d="M152.200 200.435 C 151.540 200.866,149.470 202.202,147.600 203.402 C 145.730 204.603,144.345 205.589,144.522 205.593 C 144.699 205.597,145.869 204.914,147.122 204.076 C 148.375 203.237,150.246 202.065,151.279 201.471 C 152.313 200.877,153.269 200.213,153.403 199.995 C 153.728 199.470,153.609 199.513,152.200 200.435 M141.770 207.700 C 138.622 210.455,134.605 214.973,133.059 217.500 C 132.210 218.886,133.342 217.669,135.399 214.984 C 136.670 213.325,139.155 210.625,140.921 208.984 C 144.386 205.765,144.941 204.925,141.770 207.700 M131.902 219.300 C 131.018 220.650,128.729 225.263,128.874 225.404 C 128.943 225.471,129.852 223.923,130.893 221.963 C 132.714 218.535,133.139 217.413,131.902 219.300 M126.667 230.667 C 126.520 230.813,126.411 231.308,126.425 231.767 C 126.449 232.533,126.482 232.523,126.834 231.642 C 127.226 230.663,127.144 230.189,126.667 230.667 M125.867 233.867 C 125.720 234.013,125.615 234.598,125.634 235.167 C 125.668 236.181,125.675 236.179,126.021 235.020 C 126.385 233.803,126.331 233.402,125.867 233.867 M125.049 237.815 C 124.912 238.173,124.816 238.856,124.836 239.333 C 124.862 239.947,124.985 239.808,125.259 238.856 C 125.657 237.472,125.494 236.658,125.049 237.815 M123.500 241.393 C 122.895 241.926,122.400 242.464,122.400 242.590 C 122.400 243.007,124.329 241.562,124.554 240.976 C 124.839 240.232,124.804 240.246,123.500 241.393 M116.590 244.016 C 116.421 244.289,116.723 244.338,117.466 244.160 C 118.999 243.792,119.144 243.600,117.890 243.600 C 117.317 243.600,116.732 243.787,116.590 244.016 M113.400 244.800 C 113.108 245.273,113.499 245.273,114.600 244.800 C 115.371 244.469,115.369 244.455,114.524 244.428 C 114.042 244.413,113.536 244.580,113.400 244.800 M106.600 247.458 C 103.831 248.902,97.436 253.570,97.770 253.903 C 97.867 254.001,98.454 253.605,99.074 253.023 C 100.416 251.763,103.827 249.449,106.600 247.919 C 108.689 246.765,108.689 246.368,106.600 247.458 M93.653 258.042 C 93.132 258.701,92.779 259.312,92.868 259.401 C 92.957 259.490,93.526 258.941,94.132 258.181 C 94.738 257.422,95.091 256.810,94.917 256.822 C 94.743 256.834,94.174 257.383,93.653 258.042 " stroke="none" fill="#fcce76" fill-rule="evenodd"></path><path id="path4" d="M152.974 200.542 C 152.520 201.014,151.800 201.632,151.374 201.915 C 150.949 202.198,151.365 202.030,152.300 201.541 C 153.235 201.052,154.000 200.416,154.000 200.126 C 154.000 199.481,153.993 199.484,152.974 200.542 M148.481 203.372 C 146.521 204.758,146.385 205.065,148.200 204.005 C 150.078 202.910,150.725 202.391,150.180 202.420 C 149.971 202.430,149.207 202.859,148.481 203.372 M145.429 205.429 C 145.005 205.738,144.736 206.069,144.830 206.163 C 144.924 206.257,145.348 206.081,145.771 205.771 C 146.195 205.462,146.464 205.131,146.370 205.037 C 146.276 204.943,145.852 205.119,145.429 205.429 M139.777 210.506 C 138.470 211.873,138.107 212.363,138.971 211.596 C 141.642 209.222,142.491 208.358,142.320 208.186 C 142.229 208.095,141.085 209.139,139.777 210.506 M136.352 214.300 C 135.158 215.617,133.685 217.652,132.444 219.700 C 130.900 222.248,131.806 221.354,133.653 218.508 C 134.614 217.027,135.914 215.227,136.541 214.508 C 137.922 212.926,137.760 212.748,136.352 214.300 M127.246 231.067 C 127.221 231.324,127.084 231.864,126.941 232.267 C 126.740 232.836,126.794 232.897,127.179 232.542 C 127.452 232.291,127.589 231.751,127.484 231.342 C 127.379 230.934,127.272 230.810,127.246 231.067 M126.446 234.267 C 126.421 234.524,126.284 235.064,126.141 235.467 C 125.940 236.036,125.994 236.097,126.379 235.742 C 126.652 235.491,126.789 234.951,126.684 234.542 C 126.579 234.134,126.472 234.010,126.446 234.267 M117.600 244.400 L 116.600 244.720 117.600 244.754 C 118.150 244.773,118.870 244.613,119.200 244.400 C 119.964 243.906,119.142 243.906,117.600 244.400 M114.200 245.200 C 113.429 245.531,113.431 245.545,114.276 245.572 C 114.758 245.587,115.264 245.420,115.400 245.200 C 115.692 244.727,115.301 244.727,114.200 245.200 M103.324 250.191 C 102.188 250.956,101.136 251.779,100.987 252.020 C 100.754 252.398,104.303 250.062,105.380 249.129 C 106.247 248.378,105.256 248.890,103.324 250.191 M97.015 255.449 C 95.338 257.127,94.073 258.606,94.205 258.738 C 94.336 258.869,94.603 258.719,94.797 258.404 C 94.992 258.090,96.368 256.610,97.855 255.116 C 99.342 253.622,100.448 252.400,100.312 252.400 C 100.176 252.400,98.692 253.772,97.015 255.449 M92.000 260.600 C 91.312 260.993,91.203 261.176,91.651 261.186 C 92.009 261.194,92.526 260.930,92.800 260.600 C 93.409 259.866,93.284 259.866,92.000 260.600 " stroke="none" fill="#f4e4d4" fill-rule="evenodd"></path><path id="path5" d="M251.233 162.944 C 251.705 163.350,253.643 163.593,253.410 163.216 C 253.268 162.987,252.683 162.800,252.110 162.800 C 251.536 162.800,251.142 162.865,251.233 162.944 M205.144 176.787 C 204.625 177.219,204.343 177.579,204.517 177.587 C 204.691 177.594,205.220 177.240,205.692 176.800 C 206.799 175.769,206.379 175.758,205.144 176.787 M285.781 178.710 C 286.651 179.640,287.514 180.400,287.699 180.400 C 288.056 180.400,286.818 179.126,285.182 177.810 C 284.642 177.376,284.912 177.781,285.781 178.710 M192.665 191.110 C 191.944 192.571,191.945 192.585,192.685 191.800 C 193.529 190.906,194.129 189.595,193.687 189.610 C 193.529 189.615,193.069 190.290,192.665 191.110 M131.600 322.800 C 131.067 323.145,131.067 323.188,131.600 323.188 C 131.930 323.188,132.470 323.013,132.800 322.800 C 133.333 322.455,133.333 322.412,132.800 322.412 C 132.470 322.412,131.930 322.587,131.600 322.800 " stroke="none" fill="#f4f0e4" fill-rule="evenodd"></path></g></svg>