<svg width="33" height="25" viewBox="0 0 33 25" fill="none" xmlns="http://www.w3.org/2000/svg">
<g filter="url(#filter0_di_202_22)">
<path d="M27.657 7.99999C27.6634 7.8897 27.6666 7.77856 27.6666 7.66666C27.6666 4.53705 25.1296 2 22 2C20.494 2 19.1253 2.58746 18.1104 3.54572C17.597 3.40721 17.0571 3.33333 16.5 3.33333C14.4849 3.33333 12.6955 4.29989 11.5702 5.79469C11.2272 5.71102 10.8688 5.66666 10.5 5.66666C8.01471 5.66666 6 7.68138 6 10.1667C6 10.1782 6.00004 10.1898 6.00012 10.2014C6.00004 10.2095 6 10.2176 6 10.2258C6 13.2307 8.43595 15.6667 11.4409 15.6667H20C24.2342 15.6667 27.6666 12.2342 27.6666 7.99999H27.657Z" fill="white"/>
<path d="M27.657 7.99999C27.6634 7.8897 27.6666 7.77856 27.6666 7.66666C27.6666 4.53705 25.1296 2 22 2C20.494 2 19.1253 2.58746 18.1104 3.54572C17.597 3.40721 17.0571 3.33333 16.5 3.33333C14.4849 3.33333 12.6955 4.29989 11.5702 5.79469C11.2272 5.71102 10.8688 5.66666 10.5 5.66666C8.01471 5.66666 6 7.68138 6 10.1667C6 10.1782 6.00004 10.1898 6.00012 10.2014C6.00004 10.2095 6 10.2176 6 10.2258C6 13.2307 8.43595 15.6667 11.4409 15.6667H20C24.2342 15.6667 27.6666 12.2342 27.6666 7.99999H27.657Z" fill="url(#paint0_radial_202_22)" fill-opacity="0.2"/>
</g>
<defs>
<filter id="filter0_di_202_22" x="0.666673" y="2.38419e-06" width="32.3333" height="24.3333" filterUnits="userSpaceOnUse" color-interpolation-filters="sRGB">
<feFlood flood-opacity="0" result="BackgroundImageFix"/>
<feColorMatrix in="SourceAlpha" type="matrix" values="0 0 0 0 0 0 0 0 0 0 0 0 0 0 0 0 0 0 127 0" result="hardAlpha"/>
<feOffset dy="3.33333"/>
<feGaussianBlur stdDeviation="2.66666"/>
<feComposite in2="hardAlpha" operator="out"/>
<feColorMatrix type="matrix" values="0 0 0 0 0.301961 0 0 0 0 0.368627 0 0 0 0 0.435294 0 0 0 0.08 0"/>
<feBlend mode="normal" in2="BackgroundImageFix" result="effect1_dropShadow_202_22"/>
<feBlend mode="normal" in="SourceGraphic" in2="effect1_dropShadow_202_22" result="shape"/>
<feColorMatrix in="SourceAlpha" type="matrix" values="0 0 0 0 0 0 0 0 0 0 0 0 0 0 0 0 0 0 127 0" result="hardAlpha"/>
<feOffset/>
<feGaussianBlur stdDeviation="0.999999"/>
<feComposite in2="hardAlpha" operator="arithmetic" k2="-1" k3="1"/>
<feColorMatrix type="matrix" values="0 0 0 0 0.301961 0 0 0 0 0.368627 0 0 0 0 0.435294 0 0 0 0.08 0"/>
<feBlend mode="normal" in2="shape" result="effect2_innerShadow_202_22"/>
</filter>
<radialGradient id="paint0_radial_202_22" cx="0" cy="0" r="1" gradientUnits="userSpaceOnUse" gradientTransform="translate(21.1667 3.33333) rotate(121.827) scale(17.066 27.0559)">
<stop stop-opacity="0"/>
<stop offset="1" stop-color="#4D5E6F"/>
</radialGradient>
</defs>
</svg>
