<svg id="svg" version="1.1" xmlns="http://www.w3.org/2000/svg" xmlns:xlink="http://www.w3.org/1999/xlink" width="400" height="400" viewBox="0, 0, 400,400"><g id="svgg"><path id="path0" d="M254.182 14.515 C 253.589 15.203,253.124 16.000,253.315 16.000 C 253.599 16.000,255.200 14.517,255.200 14.253 C 255.200 13.845,254.634 13.991,254.182 14.515 M135.000 25.492 C 134.560 25.599,134.020 25.824,133.800 25.993 C 133.580 26.162,132.290 26.226,130.933 26.136 C 129.479 26.038,128.360 26.141,128.209 26.385 C 128.068 26.613,127.189 26.800,126.256 26.800 C 125.323 26.800,124.386 26.974,124.173 27.187 C 123.961 27.399,123.191 27.618,122.463 27.674 C 121.735 27.729,121.052 27.915,120.946 28.087 C 120.840 28.259,120.238 28.400,119.610 28.400 C 118.981 28.400,118.407 28.575,118.333 28.788 C 118.260 29.002,117.840 29.232,117.400 29.300 C 116.960 29.368,116.420 29.529,116.200 29.659 C 115.524 30.058,112.618 30.969,112.300 30.882 C 112.135 30.837,112.000 30.980,112.000 31.200 C 112.000 31.420,111.640 31.600,111.200 31.600 C 110.760 31.600,110.400 31.780,110.400 32.000 C 110.400 32.220,109.965 32.400,109.433 32.400 C 108.902 32.400,108.407 32.535,108.333 32.700 C 108.260 32.865,107.345 33.433,106.300 33.963 C 105.255 34.492,104.400 35.077,104.400 35.263 C 104.400 35.448,104.040 35.600,103.600 35.600 C 103.160 35.600,102.800 35.780,102.800 36.000 C 102.800 36.220,102.558 36.400,102.262 36.400 C 101.966 36.400,101.398 36.760,101.000 37.200 C 100.602 37.640,100.016 38.000,99.698 38.000 C 99.381 38.000,98.617 38.540,98.000 39.200 C 97.383 39.860,96.581 40.400,96.216 40.400 C 95.851 40.400,95.629 40.535,95.722 40.700 C 95.815 40.865,94.675 41.900,93.187 43.000 C 91.700 44.100,90.565 45.135,90.665 45.300 C 90.765 45.465,90.567 45.600,90.224 45.600 C 89.867 45.600,89.600 45.942,89.600 46.400 C 89.600 46.840,89.420 47.200,89.200 47.200 C 88.980 47.200,88.665 47.237,88.500 47.282 C 87.957 47.430,86.400 49.154,86.400 49.608 C 86.400 49.852,85.500 50.929,84.400 52.000 C 83.300 53.071,82.400 54.190,82.400 54.486 C 82.400 54.781,82.050 55.276,81.621 55.585 C 81.193 55.893,80.934 56.293,81.045 56.473 C 81.156 56.653,81.069 56.800,80.851 56.800 C 80.632 56.800,80.353 57.115,80.229 57.500 C 80.105 57.885,79.473 58.819,78.825 59.576 C 78.177 60.332,77.724 61.077,77.819 61.230 C 77.914 61.384,77.723 61.732,77.396 62.004 C 77.068 62.276,76.800 62.746,76.800 63.049 C 76.800 63.352,76.601 63.600,76.357 63.600 C 76.114 63.600,76.013 63.857,76.133 64.171 C 76.254 64.485,76.095 64.955,75.781 65.216 C 75.466 65.477,75.300 65.838,75.411 66.018 C 75.522 66.198,75.430 66.458,75.207 66.596 C 74.983 66.734,74.800 67.197,74.800 67.624 C 74.800 68.051,74.620 68.400,74.400 68.400 C 74.180 68.400,74.000 68.850,74.000 69.400 C 74.000 69.950,73.820 70.400,73.600 70.400 C 73.380 70.400,73.200 70.850,73.200 71.400 C 73.200 71.950,73.020 72.400,72.800 72.400 C 72.580 72.400,72.400 72.760,72.400 73.200 C 72.400 73.640,72.220 74.000,72.000 74.000 C 71.780 74.000,71.600 74.540,71.600 75.200 C 71.600 75.860,71.420 76.400,71.200 76.400 C 70.980 76.400,70.800 77.030,70.800 77.800 C 70.800 78.570,70.620 79.200,70.400 79.200 C 70.180 79.200,70.000 79.920,70.000 80.800 C 70.000 81.680,69.854 82.400,69.675 82.400 C 69.496 82.400,69.306 83.255,69.253 84.300 C 69.200 85.345,68.987 86.260,68.779 86.333 C 68.570 86.407,68.400 88.142,68.400 90.190 L 68.400 93.912 69.900 94.182 C 70.725 94.331,72.480 94.545,73.800 94.660 C 75.120 94.774,76.371 95.032,76.580 95.234 C 76.789 95.435,77.723 95.600,78.656 95.600 C 79.589 95.600,80.464 95.780,80.600 96.000 C 80.736 96.220,81.467 96.400,82.224 96.400 C 82.981 96.400,83.600 96.580,83.600 96.800 C 83.600 97.020,84.129 97.200,84.776 97.200 C 85.423 97.200,86.064 97.380,86.200 97.600 C 86.336 97.820,86.851 98.000,87.344 98.000 C 87.837 98.000,88.411 98.149,88.620 98.330 C 88.829 98.512,89.810 98.912,90.800 99.219 C 93.032 99.911,101.774 104.331,104.170 105.979 C 105.146 106.651,106.137 107.200,106.372 107.200 C 106.607 107.200,106.800 107.341,106.800 107.514 C 106.800 107.686,107.295 108.120,107.900 108.479 C 109.060 109.165,109.451 109.482,113.600 113.107 C 115.756 114.991,118.413 117.759,123.211 123.118 C 123.547 123.493,124.262 124.430,124.800 125.200 C 125.338 125.970,126.098 126.949,126.489 127.375 C 126.880 127.802,127.200 128.372,127.200 128.642 C 127.200 128.912,127.335 129.193,127.500 129.267 C 128.078 129.524,134.000 140.823,134.000 141.669 C 134.000 141.872,134.360 142.784,134.800 143.694 C 135.240 144.605,135.600 145.666,135.600 146.052 C 135.600 146.437,135.759 146.851,135.954 146.971 C 136.149 147.092,136.407 147.687,136.529 148.295 C 136.651 148.903,136.952 150.210,137.197 151.200 C 138.217 155.310,138.483 156.719,138.670 159.000 C 138.779 160.320,139.032 161.571,139.234 161.780 C 140.223 162.807,139.650 172.751,138.528 174.010 C 134.826 178.165,129.286 176.287,129.141 170.828 C 129.053 167.527,129.027 167.300,128.700 166.969 C 128.535 166.803,128.400 165.267,128.400 163.557 C 128.400 161.847,128.220 160.336,128.000 160.200 C 127.780 160.064,127.600 159.164,127.600 158.200 C 127.600 157.236,127.420 156.336,127.200 156.200 C 126.980 156.064,126.800 155.344,126.800 154.600 C 126.800 153.856,126.620 153.136,126.400 153.000 C 126.180 152.864,126.000 152.223,126.000 151.576 C 126.000 150.929,125.820 150.400,125.600 150.400 C 125.380 150.400,125.200 150.048,125.200 149.619 C 125.200 147.387,117.595 132.776,115.613 131.200 C 115.475 131.090,114.922 130.370,114.384 129.600 C 109.360 122.406,97.441 113.595,87.200 109.506 C 86.650 109.286,85.887 108.948,85.505 108.753 C 85.123 108.559,84.459 108.400,84.029 108.400 C 83.599 108.400,83.136 108.220,83.000 108.000 C 82.864 107.780,82.324 107.600,81.800 107.600 C 81.276 107.600,80.748 107.439,80.626 107.242 C 80.415 106.900,79.144 106.644,75.200 106.149 C 74.210 106.024,73.229 105.760,73.020 105.561 C 72.811 105.363,71.400 105.200,69.884 105.200 L 67.129 105.200 68.150 103.987 C 68.975 103.006,69.099 102.588,68.800 101.801 C 68.597 101.266,68.559 100.749,68.715 100.652 C 69.355 100.258,68.930 94.606,68.251 94.471 C 67.684 94.358,67.600 94.864,67.600 98.389 C 67.600 103.202,66.902 104.400,64.098 104.400 C 63.252 104.400,62.318 104.625,62.021 104.900 C 61.590 105.300,61.539 105.300,61.765 104.900 C 61.920 104.625,61.857 104.400,61.624 104.400 C 61.391 104.400,61.200 104.580,61.200 104.800 C 61.200 105.027,60.029 105.203,58.500 105.206 C 56.609 105.210,55.980 105.328,56.400 105.600 C 56.823 105.873,56.262 105.990,54.500 105.994 C 53.104 105.997,52.000 106.177,52.000 106.400 C 52.000 106.620,51.460 106.800,50.800 106.800 C 50.140 106.800,49.600 106.980,49.600 107.200 C 49.600 107.420,48.981 107.600,48.224 107.600 C 47.467 107.600,46.746 107.764,46.622 107.965 C 46.497 108.166,45.687 108.450,44.821 108.596 C 43.955 108.743,43.043 109.108,42.794 109.407 C 42.545 109.707,42.085 109.854,41.771 109.733 C 41.457 109.613,41.200 109.714,41.200 109.957 C 41.200 110.201,40.840 110.400,40.400 110.400 C 39.960 110.400,39.600 110.580,39.600 110.800 C 39.600 111.020,39.317 111.200,38.971 111.200 C 38.626 111.200,38.071 111.472,37.739 111.804 C 37.407 112.136,36.970 112.305,36.768 112.180 C 36.565 112.055,36.400 112.143,36.400 112.376 C 36.400 112.609,36.152 112.800,35.849 112.800 C 35.546 112.800,35.070 113.074,34.792 113.410 C 34.514 113.745,34.190 113.923,34.073 113.806 C 33.955 113.689,33.486 113.941,33.030 114.366 C 32.573 114.792,31.947 115.199,31.638 115.270 C 31.328 115.342,30.451 115.992,29.687 116.716 C 28.923 117.440,28.230 117.964,28.147 117.880 C 27.669 117.402,16.000 129.116,16.000 130.074 C 16.000 130.279,15.820 130.336,15.600 130.200 C 15.380 130.064,15.200 130.257,15.200 130.629 C 15.200 131.002,14.841 131.618,14.402 131.999 C 13.962 132.379,13.234 133.526,12.783 134.546 C 12.332 135.565,11.813 136.400,11.630 136.400 C 11.447 136.400,11.073 136.940,10.800 137.600 C 10.527 138.260,10.161 138.800,9.987 138.800 C 9.813 138.800,9.719 139.115,9.779 139.500 C 9.838 139.885,9.687 140.328,9.443 140.485 C 9.200 140.642,8.991 140.912,8.980 141.085 C 8.936 141.801,8.326 143.200,8.058 143.200 C 7.900 143.200,7.740 143.602,7.703 144.093 C 7.641 144.913,7.285 145.863,6.353 147.695 C 6.159 148.077,6.000 148.662,6.000 148.995 C 6.000 149.328,5.820 149.600,5.600 149.600 C 5.380 149.600,5.200 150.241,5.200 151.024 C 5.200 151.871,5.038 152.347,4.800 152.200 C 4.558 152.051,4.400 152.596,4.400 153.576 C 4.400 154.469,4.220 155.200,4.000 155.200 C 3.780 155.200,3.600 156.100,3.600 157.200 C 3.600 158.300,3.420 159.200,3.200 159.200 C 2.965 159.200,2.800 160.600,2.800 162.600 C 2.800 164.600,2.635 166.000,2.400 166.000 C 1.865 166.000,1.865 175.469,2.400 175.800 C 2.620 175.936,2.800 177.477,2.800 179.224 C 2.800 181.075,2.967 182.400,3.200 182.400 C 3.420 182.400,3.600 183.210,3.600 184.200 C 3.600 185.190,3.780 186.000,4.000 186.000 C 4.220 186.000,4.400 186.709,4.400 187.576 C 4.400 188.443,4.580 189.264,4.800 189.400 C 5.020 189.536,5.200 190.087,5.200 190.624 C 5.200 191.161,5.380 191.600,5.600 191.600 C 5.820 191.600,6.000 192.039,6.000 192.576 C 6.000 193.113,6.180 193.664,6.400 193.800 C 6.620 193.936,6.800 194.397,6.800 194.824 C 6.800 195.251,6.980 195.600,7.200 195.600 C 7.420 195.600,7.600 196.039,7.600 196.576 C 7.600 197.113,7.780 197.664,8.000 197.800 C 8.220 197.936,8.400 198.407,8.400 198.847 C 8.400 199.287,8.571 199.542,8.779 199.413 C 8.988 199.284,9.088 199.543,9.002 199.989 C 8.916 200.435,9.016 200.800,9.223 200.800 C 9.430 200.800,9.600 201.160,9.600 201.600 C 9.600 202.040,9.758 202.400,9.951 202.400 C 10.145 202.400,10.543 202.985,10.837 203.700 C 11.384 205.034,11.685 205.490,12.900 206.829 C 13.285 207.253,13.600 207.830,13.600 208.112 C 13.600 208.393,13.960 208.883,14.400 209.200 C 14.840 209.517,15.200 209.968,15.200 210.201 C 15.200 210.434,16.100 211.569,17.200 212.722 C 18.300 213.875,19.200 214.995,19.200 215.209 C 19.200 215.424,19.380 215.600,19.600 215.600 C 19.820 215.600,20.000 215.801,20.000 216.046 C 20.000 216.475,23.176 219.600,23.612 219.600 C 23.729 219.600,24.789 220.519,25.967 221.643 C 27.146 222.767,28.705 223.935,29.433 224.239 C 30.161 224.544,31.208 225.244,31.760 225.796 C 32.312 226.348,32.959 226.800,33.199 226.800 C 33.438 226.800,34.020 227.160,34.492 227.600 C 34.964 228.040,35.587 228.400,35.875 228.400 C 36.164 228.400,36.400 228.580,36.400 228.800 C 36.400 229.020,36.634 229.200,36.920 229.200 C 37.656 229.200,39.593 230.141,39.597 230.500 C 39.599 230.665,39.960 230.800,40.400 230.800 C 40.840 230.800,41.200 230.980,41.200 231.200 C 41.200 231.420,41.549 231.600,41.976 231.600 C 42.403 231.600,42.864 231.780,43.000 232.000 C 43.136 232.220,43.697 232.400,44.247 232.400 C 44.812 232.400,45.140 232.574,45.000 232.800 C 44.856 233.033,45.263 233.200,45.976 233.200 C 46.649 233.200,47.200 233.380,47.200 233.600 C 47.200 233.820,47.740 234.000,48.400 234.000 C 49.060 234.000,49.600 234.180,49.600 234.400 C 49.600 234.620,50.219 234.800,50.976 234.800 C 51.733 234.800,52.464 234.980,52.600 235.200 C 52.736 235.420,53.557 235.600,54.424 235.600 C 55.291 235.600,56.000 235.780,56.000 236.000 C 56.000 236.221,57.040 236.400,58.320 236.400 C 59.596 236.400,60.821 236.581,61.041 236.801 C 61.307 237.067,79.556 237.169,114.980 237.101 L 168.516 237.000 169.002 235.200 C 169.269 234.210,169.714 232.140,169.990 230.600 C 170.440 228.091,171.035 224.896,172.450 217.400 C 173.043 214.262,174.428 211.862,176.086 211.102 C 177.807 210.312,230.234 209.717,232.458 210.461 C 235.947 211.630,238.094 216.722,236.439 219.905 C 236.240 220.287,235.849 221.410,235.569 222.400 C 235.290 223.390,234.912 224.371,234.730 224.580 C 234.549 224.789,234.400 225.286,234.400 225.685 C 234.400 226.084,234.226 226.723,234.014 227.105 C 233.580 227.886,231.422 234.404,231.035 236.103 L 230.783 237.206 285.692 237.120 C 315.891 237.073,338.620 236.927,336.200 236.796 L 331.800 236.558 336.200 236.419 C 339.390 236.318,340.105 236.214,338.800 236.040 L 337.000 235.800 341.400 234.348 C 347.677 232.277,356.519 227.762,357.133 226.314 C 357.207 226.142,357.509 226.000,357.805 226.000 C 360.046 226.000,369.910 214.221,373.214 207.600 C 376.340 201.336,376.973 199.605,377.962 194.600 C 378.179 193.500,378.547 191.641,378.779 190.469 C 379.325 187.708,379.319 180.520,378.769 177.424 C 377.858 172.299,377.506 170.573,377.214 169.800 C 377.047 169.360,376.694 168.280,376.429 167.400 C 375.643 164.790,373.405 159.948,371.345 156.400 C 362.999 142.023,344.699 131.200,328.738 131.200 C 325.704 131.200,324.400 130.618,324.400 129.263 C 324.400 129.002,324.234 128.477,324.032 128.095 C 323.830 127.713,323.257 126.320,322.761 125.000 C 319.000 115.008,310.663 105.066,301.400 99.528 C 298.433 97.754,293.179 95.200,292.496 95.200 C 292.217 95.200,291.632 95.020,291.195 94.800 C 290.758 94.580,290.042 94.220,289.605 94.000 C 289.168 93.780,288.442 93.600,287.991 93.600 C 287.541 93.600,286.725 93.307,286.178 92.949 C 285.155 92.278,280.698 92.414,278.656 93.177 C 278.185 93.354,277.080 93.713,276.200 93.975 C 275.320 94.238,274.195 94.621,273.700 94.826 C 273.205 95.032,272.395 95.362,271.900 95.561 C 271.405 95.759,269.796 96.479,268.325 97.161 C 265.469 98.484,263.003 98.752,261.517 97.900 C 260.365 97.240,258.800 95.729,258.800 95.278 C 258.800 95.080,258.305 94.394,257.700 93.753 C 257.095 93.112,256.110 91.997,255.510 91.275 C 252.906 88.140,247.437 84.172,243.000 82.199 C 241.680 81.612,240.287 80.967,239.905 80.766 C 239.523 80.565,238.859 80.400,238.429 80.400 C 237.999 80.400,237.548 80.239,237.426 80.042 C 236.918 79.219,227.668 78.489,222.600 78.872 C 215.414 79.415,214.129 79.724,208.200 82.341 C 200.998 85.519,194.041 91.231,189.612 97.600 C 189.077 98.370,188.540 99.090,188.419 99.200 C 187.730 99.829,185.425 104.508,183.592 109.000 C 182.707 111.169,181.613 116.676,181.399 120.038 C 181.043 125.638,180.876 126.320,179.563 127.575 C 176.912 130.109,172.634 129.484,170.968 126.320 C 169.704 123.916,171.301 109.449,173.223 105.905 C 173.430 105.523,173.600 105.020,173.600 104.786 C 173.600 104.552,173.960 103.616,174.400 102.706 C 174.840 101.795,175.200 100.814,175.200 100.525 C 175.200 100.236,175.380 100.000,175.600 100.000 C 175.820 100.000,176.004 99.685,176.009 99.300 C 176.014 98.915,176.370 98.150,176.800 97.600 C 177.230 97.050,177.586 96.375,177.591 96.100 C 177.596 95.825,177.780 95.600,178.000 95.600 C 178.220 95.600,178.400 95.410,178.400 95.178 C 178.400 94.792,180.269 91.975,182.500 89.000 C 183.869 87.175,190.392 80.704,192.200 79.378 C 193.080 78.733,193.890 78.113,194.000 78.002 C 194.110 77.890,194.695 77.544,195.300 77.232 C 195.905 76.920,196.400 76.515,196.400 76.332 C 196.400 76.150,196.760 76.000,197.200 76.000 C 197.640 76.000,198.001 75.865,198.003 75.700 C 198.005 75.535,198.410 75.213,198.903 74.983 C 199.396 74.754,200.520 74.187,201.400 73.722 C 203.965 72.368,206.742 71.200,207.396 71.200 C 208.072 71.200,208.220 70.183,207.600 69.800 C 207.380 69.664,207.200 69.203,207.200 68.776 C 207.200 68.349,207.020 68.000,206.800 68.000 C 206.580 68.000,206.400 67.735,206.400 67.412 C 206.400 67.089,206.012 66.144,205.538 65.312 C 201.990 59.085,201.878 58.803,202.664 58.078 C 203.069 57.705,203.459 57.132,203.532 56.804 C 203.605 56.476,203.849 56.093,204.075 55.954 C 204.345 55.787,204.349 55.616,204.087 55.454 C 203.867 55.318,203.390 55.835,203.025 56.604 C 202.661 57.372,202.308 58.000,202.242 58.000 C 201.932 58.000,200.400 56.465,200.398 56.153 C 200.397 55.959,199.857 55.225,199.198 54.522 C 198.539 53.819,198.000 53.064,198.000 52.845 C 198.000 52.315,187.603 41.687,187.588 42.201 C 187.581 42.420,187.392 42.285,187.168 41.900 C 186.944 41.515,186.571 41.200,186.341 41.200 C 186.110 41.200,185.417 40.660,184.800 40.000 C 184.183 39.340,183.431 38.800,183.128 38.800 C 182.825 38.800,182.317 38.440,182.000 38.000 C 181.683 37.560,181.143 37.200,180.800 37.200 C 180.457 37.200,179.917 36.840,179.600 36.400 C 179.283 35.960,178.613 35.600,178.112 35.600 C 177.610 35.600,177.200 35.420,177.200 35.200 C 177.200 34.980,176.964 34.800,176.675 34.800 C 176.387 34.800,175.764 34.440,175.292 34.000 C 174.820 33.560,174.156 33.200,173.817 33.200 C 173.478 33.200,173.200 33.020,173.200 32.800 C 173.200 32.580,172.840 32.400,172.400 32.400 C 171.960 32.400,171.600 32.220,171.600 32.000 C 171.600 31.780,171.240 31.600,170.800 31.600 C 170.360 31.600,170.000 31.459,170.000 31.287 C 170.000 31.115,169.505 30.934,168.900 30.884 C 168.295 30.834,167.740 30.615,167.667 30.397 C 167.593 30.178,167.199 30.000,166.790 30.000 C 166.382 30.000,165.936 29.820,165.800 29.600 C 165.664 29.380,165.124 29.200,164.600 29.200 C 164.076 29.200,163.560 29.059,163.454 28.887 C 163.348 28.715,162.669 28.530,161.946 28.475 C 161.223 28.420,160.534 28.238,160.416 28.070 C 160.297 27.903,159.668 27.728,159.018 27.681 C 158.367 27.634,157.656 27.416,157.438 27.198 C 157.219 26.979,156.277 26.800,155.344 26.800 C 154.411 26.800,153.563 26.664,153.460 26.498 C 153.357 26.331,152.132 26.211,150.737 26.231 C 149.319 26.250,148.074 26.075,147.915 25.833 C 147.625 25.394,136.606 25.103,135.000 25.492 M343.905 25.483 C 344.402 25.579,345.122 25.575,345.505 25.475 C 345.887 25.375,345.480 25.296,344.600 25.301 C 343.720 25.305,343.407 25.387,343.905 25.483 M242.579 31.739 C 242.428 32.343,242.416 32.949,242.552 33.085 C 242.688 33.222,242.800 33.048,242.800 32.700 C 242.800 32.352,242.974 32.007,243.187 31.933 C 243.423 31.852,243.434 31.573,243.215 31.221 C 242.935 30.770,242.794 30.885,242.579 31.739 M212.500 45.212 C 211.583 45.581,211.255 46.400,212.024 46.400 C 212.257 46.400,212.336 46.220,212.200 46.000 C 212.064 45.780,212.223 45.600,212.553 45.600 C 212.883 45.600,213.264 45.420,213.400 45.200 C 213.687 44.736,213.685 44.736,212.500 45.212 M207.606 72.100 C 207.620 73.242,208.388 73.826,208.394 72.700 C 208.397 72.095,208.220 71.600,208.000 71.600 C 207.780 71.600,207.603 71.825,207.606 72.100 M208.534 74.227 C 208.402 74.572,208.498 75.058,208.747 75.307 C 209.084 75.644,209.200 75.484,209.200 74.680 C 209.200 73.477,208.901 73.273,208.534 74.227 M209.423 76.113 C 209.040 76.971,211.528 79.615,212.680 79.575 C 213.255 79.554,213.219 79.477,212.500 79.188 C 212.005 78.989,211.600 78.629,211.600 78.389 C 211.600 78.149,211.420 78.064,211.200 78.200 C 210.980 78.336,210.800 78.167,210.800 77.824 C 210.800 77.481,210.633 77.200,210.428 77.200 C 210.223 77.200,209.985 76.795,209.898 76.300 C 209.758 75.499,209.706 75.478,209.423 76.113 M289.900 91.893 C 290.835 91.977,292.365 91.977,293.300 91.893 C 294.235 91.809,293.470 91.740,291.600 91.740 C 289.730 91.740,288.965 91.809,289.900 91.893 M299.100 92.682 C 299.595 92.778,300.405 92.778,300.900 92.682 C 301.395 92.587,300.990 92.509,300.000 92.509 C 299.010 92.509,298.605 92.587,299.100 92.682 M328.353 106.876 C 329.039 107.578,329.600 108.267,329.600 108.408 C 329.600 108.549,330.020 108.889,330.532 109.164 C 331.045 109.438,331.794 110.220,332.196 110.902 C 332.917 112.122,333.716 113.180,334.700 114.216 C 334.975 114.506,335.200 114.853,335.200 114.988 C 335.200 115.334,336.939 117.773,337.300 117.933 C 337.465 118.007,337.600 118.301,337.600 118.588 C 337.600 119.835,338.672 121.236,339.169 120.638 C 339.670 120.034,339.326 119.097,338.000 117.458 C 337.670 117.050,337.490 116.662,337.600 116.596 C 337.710 116.530,337.348 115.964,336.796 115.338 C 336.244 114.712,335.233 113.351,334.550 112.313 C 333.867 111.275,333.165 110.555,332.990 110.713 C 332.815 110.871,332.775 110.713,332.900 110.362 C 333.035 109.982,332.799 109.497,332.315 109.162 C 331.868 108.853,330.790 107.925,329.919 107.100 C 327.935 105.221,326.540 105.022,328.353 106.876 M339.200 121.405 C 339.200 121.993,339.367 122.418,340.338 124.295 C 340.592 124.787,340.800 125.462,340.800 125.795 C 340.800 126.128,340.980 126.400,341.200 126.400 C 341.420 126.400,341.600 126.951,341.600 127.624 C 341.600 128.337,341.767 128.744,342.000 128.600 C 342.220 128.464,342.400 127.823,342.400 127.176 C 342.400 126.529,342.220 126.000,342.000 126.000 C 341.780 126.000,341.600 125.561,341.600 125.024 C 341.600 124.487,341.428 123.941,341.217 123.811 C 341.007 123.681,340.936 123.310,341.060 122.987 C 341.184 122.664,341.086 122.400,340.843 122.400 C 340.599 122.400,340.400 122.040,340.400 121.600 C 340.400 121.156,340.133 120.800,339.800 120.800 C 339.470 120.800,339.200 121.072,339.200 121.405 M342.400 129.320 C 342.400 130.230,343.061 131.200,343.680 131.200 C 343.856 131.200,344.000 130.919,344.000 130.576 C 344.000 130.233,343.820 130.064,343.600 130.200 C 343.373 130.340,343.200 130.004,343.200 129.424 C 343.200 128.861,343.020 128.400,342.800 128.400 C 342.580 128.400,342.400 128.814,342.400 129.320 M346.702 131.086 C 346.979 131.186,347.113 131.417,347.001 131.598 C 346.889 131.779,348.298 131.927,350.132 131.927 C 352.501 131.927,353.467 131.785,353.467 131.436 C 353.467 131.086,352.427 130.939,349.833 130.924 C 347.835 130.912,346.426 130.985,346.702 131.086 M354.000 132.242 C 354.000 132.746,354.332 132.852,355.544 132.737 C 356.452 132.650,357.282 132.798,357.560 133.095 C 357.819 133.373,358.554 133.600,359.192 133.600 C 359.831 133.600,360.474 133.796,360.622 134.035 C 360.769 134.274,361.218 134.384,361.619 134.279 C 362.021 134.174,362.444 134.338,362.562 134.644 C 362.679 134.950,363.130 135.200,363.564 135.200 C 363.998 135.200,364.474 135.396,364.622 135.635 C 364.769 135.874,365.218 135.984,365.619 135.879 C 366.035 135.770,366.446 135.942,366.574 136.277 C 366.699 136.601,367.024 136.792,367.297 136.701 C 367.570 136.610,368.013 136.730,368.283 136.968 C 369.481 138.026,369.982 138.400,370.199 138.400 C 370.327 138.400,371.367 139.030,372.510 139.800 C 373.654 140.570,374.737 141.200,374.917 141.200 C 375.098 141.200,375.761 141.765,376.391 142.455 C 377.168 143.305,377.755 143.626,378.213 143.450 C 378.706 143.261,378.826 143.355,378.657 143.795 C 378.529 144.128,378.587 144.400,378.785 144.400 C 378.983 144.400,380.235 145.480,381.568 146.800 C 383.634 148.847,386.860 150.524,385.116 148.644 C 384.742 148.242,384.519 148.214,384.306 148.544 C 384.119 148.834,384.010 148.742,384.006 148.293 C 384.003 147.904,383.370 146.974,382.600 146.226 C 381.830 145.479,381.200 144.942,381.200 145.033 C 381.200 145.125,380.869 144.885,380.463 144.500 C 380.058 144.115,379.799 143.665,379.887 143.500 C 379.975 143.335,379.786 143.200,379.466 143.200 C 379.147 143.200,378.782 142.930,378.655 142.600 C 378.529 142.270,378.176 142.000,377.872 142.000 C 377.568 142.000,376.754 141.460,376.063 140.800 C 375.372 140.140,374.525 139.600,374.180 139.600 C 373.835 139.600,373.664 139.420,373.800 139.200 C 373.936 138.980,373.687 138.800,373.247 138.800 C 372.807 138.800,372.328 138.608,372.183 138.373 C 372.038 138.138,371.690 138.033,371.410 138.141 C 371.130 138.248,370.664 137.894,370.375 137.354 C 370.078 136.799,369.615 136.462,369.310 136.579 C 369.013 136.693,368.667 136.520,368.542 136.193 C 368.417 135.867,367.974 135.600,367.557 135.600 C 367.141 135.600,366.800 135.400,366.800 135.155 C 366.800 134.887,366.320 134.780,365.600 134.885 C 364.781 135.006,364.400 134.893,364.400 134.531 C 364.400 134.239,364.040 134.000,363.600 134.000 C 363.160 134.000,362.800 133.859,362.800 133.687 C 362.800 133.515,362.315 133.334,361.722 133.285 C 361.130 133.236,360.524 133.001,360.377 132.762 C 360.229 132.524,359.679 132.380,359.154 132.444 C 358.629 132.507,357.807 132.344,357.326 132.080 C 356.017 131.361,354.000 131.459,354.000 132.242 M384.400 150.015 C 384.400 150.274,384.661 150.386,384.980 150.263 C 385.361 150.117,385.485 150.233,385.344 150.603 C 385.225 150.912,385.580 151.617,386.133 152.169 C 386.686 152.722,387.254 153.540,387.396 153.987 C 387.538 154.434,387.800 154.800,387.978 154.800 C 388.157 154.800,388.527 155.340,388.800 156.000 C 389.073 156.660,389.455 157.200,389.649 157.200 C 389.842 157.200,390.000 157.560,390.000 158.000 C 390.000 158.440,390.180 158.800,390.400 158.800 C 390.620 158.800,390.800 159.160,390.800 159.600 C 390.800 160.040,390.980 160.400,391.200 160.400 C 391.420 160.400,391.600 160.670,391.600 161.000 C 391.600 161.330,391.799 161.600,392.043 161.600 C 392.286 161.600,392.387 161.857,392.267 162.171 C 392.146 162.485,392.307 162.957,392.624 163.220 C 392.941 163.483,393.200 164.036,393.200 164.449 C 393.200 164.862,393.392 165.200,393.627 165.200 C 393.864 165.200,393.947 165.537,393.813 165.958 C 393.681 166.375,393.805 166.960,394.089 167.258 C 394.373 167.556,394.631 168.319,394.663 168.952 C 394.696 169.586,394.877 170.216,395.066 170.352 C 395.255 170.489,395.435 171.119,395.466 171.752 C 395.497 172.386,395.723 173.029,395.968 173.180 C 396.244 173.351,396.355 174.323,396.257 175.728 C 396.133 177.519,396.222 178.000,396.679 178.000 C 397.301 178.000,397.379 174.212,396.774 173.400 C 396.610 173.180,396.418 172.370,396.347 171.600 C 396.276 170.830,396.079 170.100,395.911 169.978 C 395.742 169.855,395.564 169.270,395.515 168.678 C 395.466 168.085,395.285 167.600,395.113 167.600 C 394.941 167.600,394.800 167.060,394.800 166.400 C 394.800 165.740,394.620 165.200,394.400 165.200 C 394.180 165.200,394.000 164.660,394.000 164.000 C 394.000 163.340,393.820 162.800,393.600 162.800 C 393.380 162.800,393.200 162.530,393.200 162.200 C 393.200 161.870,393.020 161.600,392.800 161.600 C 392.580 161.600,392.400 161.150,392.400 160.600 C 392.400 160.050,392.220 159.600,392.000 159.600 C 391.780 159.600,391.600 159.330,391.600 159.000 C 391.600 158.670,391.437 158.400,391.237 158.400 C 391.038 158.400,390.969 158.040,391.084 157.600 C 391.230 157.044,391.096 156.800,390.647 156.800 C 390.275 156.800,390.000 156.472,390.000 156.029 C 390.000 155.604,389.765 155.019,389.478 154.729 C 389.190 154.438,388.835 153.883,388.689 153.496 C 388.542 153.109,388.197 152.839,387.921 152.896 C 387.645 152.953,387.357 152.595,387.282 152.100 C 387.206 151.605,386.879 151.200,386.555 151.200 C 386.215 151.200,386.015 150.903,386.082 150.500 C 386.161 150.033,385.901 149.758,385.300 149.672 C 384.804 149.602,384.400 149.756,384.400 150.015 M397.011 181.300 C 396.881 182.235,396.855 183.900,396.955 185.000 C 397.055 186.100,397.151 187.315,397.168 187.700 C 397.186 188.085,397.370 188.400,397.578 188.400 C 397.792 188.400,397.961 186.488,397.968 184.000 C 397.980 179.590,397.457 178.113,397.011 181.300 M295.067 182.624 C 296.962 184.069,297.441 185.554,297.705 190.800 C 298.094 198.530,299.842 204.042,304.743 213.000 C 305.105 213.660,305.499 214.290,305.619 214.400 C 305.740 214.510,306.277 215.230,306.814 216.000 C 307.350 216.770,308.061 217.747,308.394 218.171 C 309.389 219.437,315.123 225.200,315.388 225.200 C 315.523 225.200,316.031 225.577,316.517 226.038 C 317.785 227.241,320.669 229.200,321.172 229.200 C 321.407 229.200,321.600 229.380,321.600 229.600 C 321.600 229.820,321.855 230.000,322.167 230.000 C 322.478 230.000,322.793 230.135,322.867 230.300 C 323.181 231.008,331.030 234.389,333.747 234.986 C 336.278 235.543,333.935 235.677,322.599 235.624 L 310.745 235.569 309.272 234.307 C 303.700 229.532,294.800 219.022,294.800 217.215 C 294.800 216.987,294.654 216.800,294.475 216.800 C 294.296 216.800,293.902 216.170,293.600 215.400 C 293.298 214.630,292.904 214.000,292.725 214.000 C 292.546 214.000,292.400 213.728,292.400 213.395 C 292.400 213.062,292.220 212.432,292.000 211.995 C 291.780 211.558,291.420 210.842,291.200 210.405 C 290.980 209.968,290.800 209.338,290.800 209.005 C 290.800 208.672,290.640 208.400,290.445 208.400 C 290.250 208.400,289.997 207.905,289.881 207.300 C 289.766 206.695,289.223 204.580,288.674 202.600 C 286.924 196.284,286.055 187.272,286.977 184.988 C 288.286 181.741,292.352 180.553,295.067 182.624 M396.161 190.158 C 395.819 191.049,396.161 193.809,396.600 193.705 C 397.159 193.573,397.361 189.600,396.808 189.600 C 396.570 189.600,396.279 189.851,396.161 190.158 M395.439 194.738 C 395.129 195.238,395.649 198.000,396.052 198.000 C 396.244 198.000,396.400 197.190,396.400 196.200 C 396.400 194.556,395.962 193.890,395.439 194.738 M394.655 198.202 C 394.516 198.563,394.626 199.250,394.899 199.729 C 395.385 200.583,395.397 200.578,395.528 199.451 C 395.684 198.118,395.040 197.198,394.655 198.202 M394.000 201.351 C 394.000 201.874,393.741 202.517,393.424 202.780 C 393.107 203.043,392.946 203.515,393.067 203.829 C 393.424 204.760,394.000 204.480,394.000 203.376 C 394.000 202.796,394.173 202.460,394.400 202.600 C 394.633 202.744,394.800 202.337,394.800 201.624 C 394.800 200.951,394.620 200.400,394.400 200.400 C 394.180 200.400,394.000 200.828,394.000 201.351 M392.350 204.776 C 392.322 205.009,392.253 205.335,392.196 205.500 C 392.139 205.665,391.961 206.205,391.800 206.700 C 391.638 207.195,391.372 207.600,391.208 207.600 C 391.044 207.600,390.483 208.500,389.961 209.600 C 389.438 210.700,388.874 211.600,388.706 211.600 C 388.538 211.600,388.400 211.843,388.400 212.141 C 388.400 212.438,387.860 213.246,387.200 213.937 C 386.540 214.628,386.000 215.374,386.000 215.596 C 386.000 216.336,387.142 216.012,387.400 215.200 C 387.540 214.760,387.893 214.400,388.184 214.400 C 388.711 214.400,389.329 213.434,389.382 212.526 C 389.398 212.266,389.768 211.623,390.205 211.099 C 391.137 209.982,393.200 205.998,393.200 205.317 C 393.200 204.713,392.416 204.215,392.350 204.776 M381.045 220.870 C 378.650 223.264,376.599 225.132,376.487 225.021 C 376.376 224.909,375.675 225.354,374.929 226.009 C 374.183 226.664,373.398 227.200,373.186 227.200 C 372.974 227.200,372.800 227.470,372.800 227.800 C 372.800 228.693,374.306 228.526,374.600 227.600 C 374.740 227.160,375.112 226.800,375.427 226.800 C 375.742 226.800,376.000 226.620,376.000 226.400 C 376.000 226.180,376.371 226.000,376.824 226.000 C 377.277 226.000,377.536 225.820,377.400 225.600 C 377.264 225.380,377.433 225.200,377.776 225.200 C 378.119 225.200,378.400 225.009,378.400 224.776 C 378.400 224.543,378.580 224.464,378.800 224.600 C 379.020 224.736,379.200 224.556,379.200 224.200 C 379.200 223.844,379.380 223.664,379.600 223.800 C 379.820 223.936,380.000 223.844,380.000 223.595 C 380.000 223.346,380.270 222.873,380.600 222.543 C 380.930 222.213,381.200 222.073,381.200 222.233 C 381.200 222.541,382.164 221.497,383.402 219.849 C 383.816 219.299,384.299 218.938,384.477 219.048 C 384.655 219.157,384.800 218.967,384.800 218.624 C 384.800 218.281,384.980 218.000,385.200 218.000 C 385.420 218.000,385.603 217.685,385.606 217.300 C 385.611 216.696,385.670 216.682,386.037 217.200 C 386.382 217.688,386.432 217.693,386.305 217.225 C 386.004 216.110,385.359 216.557,381.045 220.870 M370.253 229.207 C 369.219 229.863,368.108 230.400,367.786 230.400 C 367.464 230.400,367.200 230.682,367.200 231.027 C 367.200 231.472,366.968 231.580,366.400 231.400 C 365.941 231.254,365.600 231.328,365.600 231.573 C 365.600 231.808,365.251 232.000,364.824 232.000 C 364.397 232.000,363.936 232.180,363.800 232.400 C 363.664 232.620,363.023 232.800,362.376 232.800 C 361.729 232.800,361.200 232.980,361.200 233.200 C 361.200 233.420,360.761 233.600,360.224 233.600 C 359.344 233.600,358.298 234.357,359.076 234.431 C 359.254 234.447,359.714 234.521,360.098 234.595 C 360.483 234.669,360.898 234.565,361.022 234.364 C 361.146 234.164,361.777 234.000,362.424 234.000 C 363.071 234.000,363.600 233.820,363.600 233.600 C 363.600 233.380,363.935 233.200,364.345 233.200 C 365.138 233.200,371.227 230.199,371.586 229.630 C 371.704 229.445,372.143 229.227,372.562 229.146 C 373.224 229.019,373.246 228.935,372.730 228.507 C 372.244 228.105,371.789 228.233,370.253 229.207 M356.251 235.012 C 356.064 235.499,356.301 235.605,357.408 235.530 C 358.884 235.431,359.215 235.045,358.167 234.643 C 357.126 234.243,356.499 234.364,356.251 235.012 M352.248 235.820 C 352.049 236.337,352.336 236.420,353.972 236.321 C 355.489 236.228,355.839 236.088,355.518 235.701 C 354.917 234.977,352.538 235.064,352.248 235.820 M342.400 236.571 C 341.133 237.032,341.480 237.082,346.033 237.095 C 350.068 237.108,351.067 237.001,351.067 236.555 C 351.067 235.824,344.418 235.836,342.400 236.571 " stroke="none" fill="#e4f0fc" fill-rule="evenodd"></path><path id="path1" d="M195.400 210.390 C 172.912 210.641,173.777 210.369,172.426 217.600 C 172.158 219.030,171.780 221.010,171.585 222.000 C 171.391 222.990,170.867 225.780,170.421 228.200 C 169.154 235.080,168.693 236.866,168.126 237.084 C 167.816 237.203,167.600 237.924,167.600 238.843 C 167.600 239.699,167.420 240.400,167.200 240.400 C 166.980 240.400,166.800 241.289,166.800 242.376 C 166.800 243.463,166.620 244.464,166.400 244.600 C 166.180 244.736,166.000 245.726,166.000 246.800 C 166.000 247.874,165.820 248.864,165.600 249.000 C 165.380 249.136,165.200 250.047,165.200 251.024 C 165.200 252.001,165.037 252.800,164.837 252.800 C 164.637 252.800,164.367 253.790,164.237 255.000 C 164.107 256.210,163.893 258.190,163.763 259.400 C 163.633 260.610,163.363 261.600,163.163 261.600 C 162.963 261.600,162.800 262.399,162.800 263.376 C 162.800 264.353,162.620 265.264,162.400 265.400 C 162.180 265.536,162.000 266.616,162.000 267.800 C 162.000 268.984,161.820 270.064,161.600 270.200 C 161.380 270.336,161.200 271.247,161.200 272.224 C 161.200 273.201,161.020 274.000,160.800 274.000 C 160.580 274.000,160.400 274.864,160.400 275.920 C 160.400 276.976,160.237 278.011,160.039 278.220 C 159.840 278.429,159.584 279.410,159.470 280.400 C 159.355 281.390,159.160 282.740,159.036 283.400 C 158.912 284.060,158.692 285.905,158.547 287.500 C 158.401 289.095,158.129 290.400,157.941 290.400 C 157.754 290.400,157.600 291.300,157.600 292.400 C 157.600 293.500,157.420 294.400,157.200 294.400 C 156.980 294.400,156.800 295.390,156.800 296.600 C 156.800 297.810,156.620 298.800,156.400 298.800 C 156.180 298.800,156.000 299.700,156.000 300.800 C 156.000 301.900,155.820 302.800,155.600 302.800 C 155.378 302.800,155.200 303.867,155.200 305.200 C 155.200 306.533,155.022 307.600,154.800 307.600 C 154.580 307.600,154.400 308.039,154.400 308.576 C 154.400 309.113,154.580 309.664,154.800 309.800 C 155.020 309.936,155.200 310.583,155.200 311.237 C 155.200 312.536,157.476 315.200,158.587 315.200 C 158.924 315.200,159.200 315.380,159.200 315.600 C 159.200 315.860,165.200 316.000,176.400 316.000 C 187.600 316.000,193.600 316.140,193.600 316.400 C 193.600 316.620,193.960 316.800,194.400 316.800 C 194.840 316.800,195.200 316.980,195.200 317.200 C 195.200 317.420,195.438 317.600,195.729 317.600 C 196.019 317.600,196.649 318.468,197.129 319.528 C 198.034 321.532,198.294 324.000,197.600 324.000 C 197.380 324.000,197.200 324.889,197.200 325.976 C 197.200 327.063,197.020 328.064,196.800 328.200 C 196.580 328.336,196.400 329.326,196.400 330.400 C 196.400 331.474,196.220 332.464,196.000 332.600 C 195.780 332.736,195.600 333.827,195.600 335.024 C 195.600 336.221,195.451 337.200,195.268 337.200 C 195.086 337.200,194.895 338.231,194.844 339.491 C 194.793 340.752,194.607 341.877,194.429 341.991 C 194.252 342.106,193.997 343.190,193.862 344.400 C 193.727 345.610,193.432 347.590,193.206 348.800 C 192.980 350.010,192.697 351.720,192.577 352.600 C 192.457 353.480,192.098 355.524,191.779 357.143 C 191.461 358.761,191.200 360.977,191.200 362.066 C 191.200 363.285,191.046 363.952,190.800 363.800 C 190.550 363.646,190.400 364.463,190.400 365.976 C 190.400 367.325,190.223 368.400,190.000 368.400 C 189.778 368.400,189.600 369.467,189.600 370.800 C 189.600 372.133,189.422 373.200,189.200 373.200 C 188.980 373.200,188.800 374.089,188.800 375.176 C 188.800 376.263,188.620 377.264,188.400 377.400 C 188.180 377.536,188.000 378.537,188.000 379.624 C 188.000 380.711,187.820 381.600,187.600 381.600 C 187.378 381.600,187.200 382.667,187.200 384.000 C 187.200 385.333,187.022 386.400,186.800 386.400 C 185.840 386.400,186.340 392.776,187.382 393.818 C 188.390 394.827,191.600 395.269,191.600 394.400 C 191.600 394.180,191.883 394.000,192.229 394.000 C 193.037 394.000,194.000 393.037,194.000 392.229 C 194.000 391.883,194.146 391.600,194.325 391.600 C 194.504 391.600,194.898 390.970,195.200 390.200 C 195.502 389.430,195.896 388.800,196.075 388.800 C 196.254 388.800,196.400 388.440,196.400 388.000 C 196.400 387.560,196.580 387.200,196.800 387.200 C 197.020 387.200,197.200 386.840,197.200 386.400 C 197.200 385.960,197.380 385.600,197.600 385.600 C 197.820 385.600,198.000 385.240,198.000 384.800 C 198.000 384.360,198.180 384.000,198.400 384.000 C 198.620 384.000,198.800 383.640,198.800 383.200 C 198.800 382.760,198.980 382.400,199.200 382.400 C 199.420 382.400,199.600 382.040,199.600 381.600 C 199.600 381.160,199.780 380.800,200.000 380.800 C 200.220 380.800,200.400 380.440,200.400 380.000 C 200.400 379.560,200.580 379.200,200.800 379.200 C 201.020 379.200,201.200 378.840,201.200 378.400 C 201.200 377.960,201.380 377.600,201.600 377.600 C 201.820 377.600,202.000 377.240,202.000 376.800 C 202.000 376.360,202.180 376.000,202.400 376.000 C 202.620 376.000,202.800 375.730,202.800 375.400 C 202.800 375.070,202.980 374.800,203.200 374.800 C 203.420 374.800,203.600 374.440,203.600 374.000 C 203.600 373.560,203.780 373.200,204.000 373.200 C 204.220 373.200,204.400 372.840,204.400 372.400 C 204.400 371.960,204.580 371.600,204.800 371.600 C 205.020 371.600,205.200 371.255,205.200 370.833 C 205.200 370.412,205.335 370.007,205.500 369.933 C 205.965 369.726,208.800 364.142,208.800 363.432 C 208.800 363.084,208.980 362.800,209.200 362.800 C 209.420 362.800,209.600 362.440,209.600 362.000 C 209.600 361.560,209.780 361.200,210.000 361.200 C 210.220 361.200,210.400 360.840,210.400 360.400 C 210.400 359.960,210.546 359.600,210.725 359.600 C 210.904 359.600,211.298 358.970,211.600 358.200 C 211.902 357.430,212.296 356.800,212.475 356.800 C 212.654 356.800,212.800 356.440,212.800 356.000 C 212.800 355.560,212.980 355.200,213.200 355.200 C 213.420 355.200,213.600 354.840,213.600 354.400 C 213.600 353.960,213.780 353.600,214.000 353.600 C 214.220 353.600,214.400 353.240,214.400 352.800 C 214.400 352.360,214.580 352.000,214.800 352.000 C 215.020 352.000,215.200 351.640,215.200 351.200 C 215.200 350.760,215.380 350.400,215.600 350.400 C 215.820 350.400,216.000 350.040,216.000 349.600 C 216.000 349.160,216.180 348.800,216.400 348.800 C 216.620 348.800,216.800 348.440,216.800 348.000 C 216.800 347.560,216.980 347.200,217.200 347.200 C 217.420 347.200,217.600 346.840,217.600 346.400 C 217.600 345.960,217.780 345.600,218.000 345.600 C 218.220 345.600,218.400 345.240,218.400 344.800 C 218.400 344.360,218.580 344.000,218.800 344.000 C 219.020 344.000,219.200 343.640,219.200 343.200 C 219.200 342.760,219.380 342.400,219.600 342.400 C 219.820 342.400,220.000 342.130,220.000 341.800 C 220.000 341.470,220.180 341.200,220.400 341.200 C 220.620 341.200,220.800 340.840,220.800 340.400 C 220.800 339.960,220.980 339.600,221.200 339.600 C 221.420 339.600,221.600 339.255,221.600 338.833 C 221.600 338.412,221.735 338.007,221.900 337.933 C 222.365 337.726,225.200 332.142,225.200 331.432 C 225.200 331.084,225.380 330.800,225.600 330.800 C 225.820 330.800,226.000 330.440,226.000 330.000 C 226.000 329.560,226.180 329.200,226.400 329.200 C 226.620 329.200,226.800 328.840,226.800 328.400 C 226.800 327.960,226.980 327.600,227.200 327.600 C 227.420 327.600,227.600 327.240,227.600 326.800 C 227.600 326.360,227.746 326.000,227.925 326.000 C 228.104 326.000,228.498 325.370,228.800 324.600 C 229.102 323.830,229.496 323.200,229.675 323.200 C 229.854 323.200,230.000 322.840,230.000 322.400 C 230.000 321.960,230.180 321.600,230.400 321.600 C 230.620 321.600,230.800 321.240,230.800 320.800 C 230.800 320.360,230.980 320.000,231.200 320.000 C 231.420 320.000,231.600 319.640,231.600 319.200 C 231.600 318.760,231.780 318.400,232.000 318.400 C 232.220 318.400,232.400 318.040,232.400 317.600 C 232.400 317.160,232.580 316.800,232.800 316.800 C 233.020 316.800,233.200 316.440,233.200 316.000 C 233.200 315.560,233.380 315.200,233.600 315.200 C 233.820 315.200,234.000 314.840,234.000 314.400 C 234.000 313.960,234.180 313.600,234.400 313.600 C 234.620 313.600,234.800 313.240,234.800 312.800 C 234.800 312.360,234.980 312.000,235.200 312.000 C 235.420 312.000,235.600 311.640,235.600 311.200 C 235.600 310.760,235.780 310.400,236.000 310.400 C 236.220 310.400,236.400 310.040,236.400 309.600 C 236.400 309.160,236.536 308.800,236.702 308.800 C 236.869 308.800,237.259 308.215,237.570 307.500 C 237.881 306.785,238.243 306.110,238.373 306.000 C 238.570 305.834,239.679 303.643,242.064 298.705 C 243.663 295.396,241.024 288.802,238.100 288.800 C 237.605 288.800,237.200 288.620,237.200 288.400 C 237.200 288.146,234.119 288.000,228.756 288.000 L 220.312 288.000 218.556 286.219 C 216.823 284.461,215.850 280.000,217.200 280.000 C 217.420 280.000,217.600 279.460,217.600 278.800 C 217.600 278.140,217.780 277.600,218.000 277.600 C 218.220 277.600,218.400 277.060,218.400 276.400 C 218.400 275.740,218.580 275.200,218.800 275.200 C 219.020 275.200,219.200 274.660,219.200 274.000 C 219.200 273.340,219.380 272.800,219.600 272.800 C 219.820 272.800,220.000 272.361,220.000 271.824 C 220.000 271.287,220.180 270.736,220.400 270.600 C 220.620 270.464,220.800 269.924,220.800 269.400 C 220.800 268.876,220.980 268.336,221.200 268.200 C 221.420 268.064,221.600 267.601,221.600 267.171 C 221.600 266.741,221.762 266.077,221.961 265.695 C 222.572 264.518,225.200 256.006,225.200 255.204 C 225.200 254.788,225.380 254.336,225.600 254.200 C 225.820 254.064,226.000 253.513,226.000 252.976 C 226.000 252.439,226.180 252.000,226.400 252.000 C 226.620 252.000,226.800 251.460,226.800 250.800 C 226.800 250.140,226.980 249.600,227.200 249.600 C 227.420 249.600,227.600 249.060,227.600 248.400 C 227.600 247.740,227.780 247.200,228.000 247.200 C 228.220 247.200,228.400 246.660,228.400 246.000 C 228.400 245.340,228.580 244.800,228.800 244.800 C 229.020 244.800,229.200 244.260,229.200 243.600 C 229.200 242.940,229.380 242.400,229.600 242.400 C 229.820 242.400,230.000 241.860,230.000 241.200 C 230.000 240.540,230.180 240.000,230.400 240.000 C 230.620 240.000,230.800 239.586,230.800 239.080 C 230.800 238.574,231.016 237.944,231.280 237.680 C 231.653 237.307,231.652 237.200,231.272 237.200 C 230.946 237.200,230.868 236.836,231.035 236.100 C 231.422 234.404,233.581 227.885,234.014 227.105 C 234.226 226.723,234.400 226.084,234.400 225.685 C 234.400 225.286,234.549 224.789,234.730 224.580 C 234.912 224.371,235.290 223.390,235.569 222.400 C 235.849 221.410,236.240 220.287,236.439 219.905 C 236.994 218.837,236.867 214.889,236.238 213.680 C 234.530 210.398,232.948 209.980,222.640 210.090 C 217.998 210.140,205.740 210.275,195.400 210.390 " stroke="none" fill="#fcdd73" fill-rule="evenodd"></path><path id="path2" d="" stroke="none" fill="#dce4100" fill-rule="evenodd"></path><path id="path3" d="" stroke="none" fill="#dce4100" fill-rule="evenodd"></path><path id="path4" d="" stroke="none" fill="#dce4100" fill-rule="evenodd"></path><path id="path5" d="" stroke="none" fill="#dce4100" fill-rule="evenodd"></path></g></svg>